<svg width="83" height="81" viewBox="0 0 83 81" fill="none" xmlns="http://www.w3.org/2000/svg">
<path d="M34.0815 6.9506C30.8206 2.1118 24.7458 0.928395 19.3284 0.849502C5.49578 0.665417 0.656981 14.2877 0.315109 25.885C-0.105657 39.5073 12.5962 44.0831 24.3776 42.8209C24.1935 54.7864 24.5617 80.2164 25.114 80.3479C26.2711 80.6371 28.559 80.5057 30.1895 80.5845C32.1355 80.6897 34.7127 80.7423 36.6324 80.8212C37.9999 80.8738 37.6318 43.1627 37.9473 25.6221C38.0525 19.0476 37.8947 12.5783 34.0815 6.9506ZM3.65494 31.7495C2.65562 28.883 2.62931 25.5432 2.8397 22.1771C3.05008 18.732 3.76012 15.3133 5.2065 12.2891C8.09926 13.7617 7.41552 17.4697 7.36293 20.3099C7.28403 23.9653 8.15187 30.0138 3.73383 31.6969C3.70753 31.7232 3.68124 31.7495 3.65494 31.7495ZM9.70344 38.2187C7.17885 37.1142 5.54837 35.5101 4.49646 33.6429C9.23007 31.4865 9.44045 26.4636 9.49305 21.73C9.51934 18.2324 10.6502 11.2371 6.12693 10.5271C7.38922 8.42328 9.07229 6.55613 11.2287 5.08345C16.8828 1.19137 26.4026 2.90073 31.1362 7.31877C35.975 11.8157 35.712 19.9154 35.6068 25.885C35.5016 32.1176 35.3701 38.3765 35.2649 44.6091C35.1071 53.5241 34.7653 62.4653 34.7916 71.4066C32.3459 71.1436 29.6635 70.9332 27.2441 71.3277C26.7444 61.3608 26.6393 51.3677 26.797 41.4008C26.797 40.7696 26.4026 40.2174 25.6925 40.2963C20.17 41.0589 14.8578 40.5066 9.70344 38.2187ZM31.5569 78.2177C30.2946 78.1914 28.9009 77.9811 27.586 78.0863C27.6123 77.9811 27.6386 77.9022 27.6386 77.797C27.5597 76.4558 27.4808 75.0883 27.4019 73.7471C28.1645 73.7734 28.9272 73.7471 29.6898 73.7471C31.4255 73.7734 33.1348 73.9049 34.8442 74.0627C34.8705 75.4828 34.8705 76.9291 34.8968 78.3492C33.7922 78.2966 32.6615 78.244 31.5569 78.2177Z" fill="black"/>
<path d="M19.381 19.9156C19.1443 20.0208 18.9865 20.1786 18.855 20.3364C17.6453 20.9412 16.6197 22.072 16.1989 23.3343C15.2259 26.1745 17.5138 29.225 20.4066 29.4354C23.4571 29.6458 26.3499 26.753 25.9554 23.6762C25.5347 20.5468 22.3526 18.4692 19.381 19.9156ZM20.2751 27.0686C18.9339 26.6216 18.145 25.1226 18.2765 23.7814C18.3291 23.0451 18.8024 22.5191 19.381 22.1246C19.565 22.1246 19.8017 22.072 20.0384 21.9668C21.6952 21.1516 23.4045 22.3613 23.7727 24.0181C24.2198 26.0167 22.1685 27.6735 20.2751 27.0686Z" fill="black"/>
<path d="M44.5747 25.6484C44.8639 43.1891 44.5221 80.9002 45.8895 80.8476C47.8356 80.7687 50.4128 80.7161 52.3325 80.6109C53.963 80.532 56.2509 80.6635 57.408 80.3742C57.9603 80.2427 58.3284 54.7864 58.1443 42.8472C69.9258 44.1095 82.6276 39.5337 82.2069 25.9114C81.865 14.3141 77.0262 0.691784 63.1935 0.875869C57.7762 0.954763 51.7014 2.13817 48.4404 6.97697C44.6272 12.5784 44.4695 19.0477 44.5747 25.6484ZM78.7881 31.6969C74.3701 30.0139 75.238 23.9391 75.1591 20.31C75.1065 17.4698 74.4227 13.7881 77.3155 12.2891C78.7356 15.3134 79.4719 18.7058 79.6823 22.1771C79.8664 25.5432 79.8401 28.8831 78.867 31.7495C78.8145 31.7495 78.8144 31.7232 78.7881 31.6969ZM56.7769 40.27C56.0931 40.1648 55.6723 40.7434 55.6723 41.3745C55.8301 51.3414 55.7249 61.3346 55.2253 71.3015C52.8059 70.907 50.1498 71.1174 47.6778 71.3804C47.7041 62.4391 47.3885 53.4978 47.2044 44.5829C47.0992 38.3503 46.9677 32.0914 46.8626 25.8588C46.7574 19.8629 46.4944 11.7895 51.3332 7.29254C56.0931 2.87451 65.6129 1.19144 71.2407 5.05723C73.3971 6.52991 75.0539 8.39705 76.3425 10.5009C71.8192 11.2109 72.95 18.2061 72.9763 21.7038C73.0289 26.4374 73.2393 31.4866 77.9729 33.6167C76.921 35.5101 75.2642 37.088 72.7659 38.1925C67.6378 40.5067 62.352 41.059 56.7769 40.27ZM47.5989 78.323C47.6515 76.9029 47.6515 75.4565 47.6515 74.0365C49.3608 73.8787 51.0965 73.7472 52.8059 73.7209C53.5685 73.7209 54.3312 73.7472 55.0938 73.7209C55.0149 75.0621 54.9623 76.4296 54.8571 77.7708C54.8571 77.8759 54.8834 77.9548 54.9097 78.06C53.5948 77.9811 52.201 78.1652 50.9387 78.1915C49.8342 78.2441 48.7297 78.2967 47.5989 78.323Z" fill="black"/>
<path d="M56.5664 23.6762C56.172 26.753 59.091 29.6458 62.1153 29.4354C64.9817 29.225 67.2697 26.1745 66.3229 23.3343C65.9022 22.0457 64.8766 20.9149 63.6669 20.3364C63.5354 20.1786 63.3513 20.0208 63.1409 19.9156C60.143 18.4692 56.9872 20.5468 56.5664 23.6762ZM58.7492 23.9918C59.1173 22.335 60.8267 21.1253 62.4835 21.9405C62.7464 22.072 62.9568 22.0983 63.1409 22.0983C63.7195 22.4665 64.1665 23.0188 64.2454 23.7551C64.3506 25.0963 63.588 26.5953 62.2468 27.0423C60.3533 27.6735 58.3021 26.0167 58.7492 23.9918Z" fill="black"/>
</svg>
