<svg width="418" height="389" viewBox="0 0 418 389" fill="none" xmlns="http://www.w3.org/2000/svg">
<g clip-path="url(#clip0)">
<path opacity="0.18" d="M413.14 296.98C409.8 310.98 404.99 324.84 396.49 336.45C383.56 354.11 363.34 364.89 343.07 373.16C326.36 379.97 308.8 385.54 290.75 385.84C266.24 386.25 242.46 376.95 217.94 376.31C188.94 375.56 160.87 386.94 131.94 388.58C101.425 390.199 71.3151 381.022 46.89 362.66C41.4077 358.517 36.286 353.917 31.58 348.91C21.306 338.147 13.3487 325.39 8.19999 311.43C5.68648 304.362 3.84499 297.073 2.69999 289.66C0.779987 277.8 0.269986 265.66 0.0699864 253.6C-0.560014 215.42 2.64999 174.49 26.15 144.39C34.4 133.83 44.79 125.15 55.07 116.56L111.84 69.1699C126.69 56.7699 141.61 44.3299 158.16 34.3099C176.46 23.2399 196.47 15.3099 216.53 7.88986C225.43 4.60986 234.47 1.37986 243.91 0.359861C264.59 -1.88014 284.97 6.72986 302.71 17.5899C319.35 27.7699 335.36 40.9799 342.21 59.2799C347.97 74.5999 346.62 91.6299 350.02 107.66C357.11 141.13 384.26 165.56 401.14 194.22C419.47 225.34 421.38 262.25 413.14 296.98Z" fill="#B7B7B7"/>
<path d="M153.1 106.21C151.984 106.313 150.915 106.71 150.001 107.359C149.088 108.009 148.363 108.889 147.9 109.91C147.008 111.982 146.911 114.311 147.63 116.45C147.985 117.256 148.156 118.13 148.13 119.01C147.947 119.742 147.606 120.425 147.13 121.01C145.356 123.417 144.346 126.302 144.23 129.29C144.23 132.29 145.94 135.34 148.73 136.34C146.95 140.08 146.9 144.88 149.51 148.1C152.12 151.32 157.65 152.03 160.41 148.94C161.159 150.33 162.316 151.457 163.724 152.171C165.133 152.885 166.726 153.151 168.29 152.933C169.854 152.716 171.314 152.025 172.474 150.953C173.634 149.882 174.439 148.482 174.78 146.94C177.4 148.41 180.96 147.18 182.68 144.72C183.473 143.442 183.968 142.001 184.127 140.505C184.287 139.009 184.106 137.497 183.6 136.08C182.568 133.253 181.041 130.632 179.09 128.34C181.23 126.72 183.47 124.99 184.49 122.51C185.51 120.03 184.77 116.6 182.27 115.64C183.276 114.118 183.821 112.338 183.842 110.514C183.863 108.689 183.358 106.897 182.388 105.352C181.418 103.807 180.023 102.574 178.371 101.801C176.718 101.027 174.878 100.746 173.07 100.99C171.14 101.21 169.7 102.34 167.79 101.51C166.31 100.86 165.4 98.9001 164.17 97.8901C158.71 93.4501 149.74 99.2601 153.1 106.21Z" fill="#329094"/>
<path d="M297 212.23C295.922 237.262 285.22 260.911 267.126 278.242C249.032 295.573 224.945 305.248 199.89 305.248C174.835 305.248 150.748 295.573 132.654 278.242C114.56 260.911 103.858 237.262 102.78 212.23H297Z" fill="#329094"/>
<path d="M257.28 212.23C257.28 212.23 243 288.52 227.7 291.29C212.4 294.06 257.28 297.2 279.87 262.78C299.52 232.85 297 212.23 297 212.23H257.28Z" fill="url(#paint0_linear)"/>
<path d="M129.64 212.76C129.64 212.76 137.53 284.83 184.5 292C231.47 299.17 244.38 293.44 244.38 293.44C244.38 293.44 215.38 322.12 175.89 311.36C136.4 300.6 114.41 258.43 114.41 258.43C114.41 258.43 101.69 223.17 102.76 212.23L129.64 212.76Z" fill="url(#paint1_linear)"/>
<path d="M161.87 219.56C162.07 219.28 162.36 218.79 162.71 218.35C163.65 217.08 164.6 217.13 165.2 218.63C166.2 221.06 167.36 223.52 166.63 226.25C166.301 227.063 165.878 227.835 165.37 228.55C163.84 231.31 160.29 233.22 161.77 237.23C161.836 237.418 161.861 237.617 161.844 237.816C161.827 238.014 161.767 238.206 161.67 238.38C160.41 240.23 161.22 241.62 162.34 243.22C163.9 245.45 165 248.01 166.6 250.22C168.89 253.34 170.21 257.22 173.67 259.41C175.35 260.47 177.18 261.34 178.76 262.52C179.605 263.173 180.189 264.105 180.41 265.15C180.79 267.91 180.79 270.72 181.08 273.5C181.31 275.73 181.84 277.95 182.08 280.18C182.307 281.439 182.279 282.731 182 283.98C181.354 285.801 181.336 287.787 181.95 289.62C182.49 291.26 182.95 292.93 183.44 294.62C184.9 299.21 191.7 302.62 196.53 301.17L191.39 298.58C192.32 297.58 193.04 296.85 193.85 296L191.72 294.72L193.72 293.52C193.5 292.57 193.28 291.59 193.02 290.39L196.02 290.87C196.13 290.06 196.23 289.37 196.35 288.53C198.26 288.34 200.18 288.18 202.35 287.98C202.13 286.7 201.92 285.51 201.7 284.32C204.96 285.25 206.94 284.47 209.09 281.7C210.051 280.634 211.08 279.632 212.17 278.7C213.58 277.29 215.17 275.99 215.17 273.7C215.17 273.35 216 272.88 216.52 272.65C219.11 271.57 221.36 269.59 224.52 269.85C224.99 269.85 225.7 269.19 225.99 268.65C227.48 265.78 228.92 262.86 230.31 259.94C230.526 259.376 230.578 258.762 230.46 258.17C230.26 256.69 229.93 255.23 231.94 254.68C232.24 254.59 232.44 254.08 232.68 253.76C233.89 252.05 235.06 250.3 236.34 248.65C237.34 247.39 237.58 243.83 236.59 242.65C236.39 242.42 235.99 242.14 235.79 242.19C233.71 242.77 232.56 241.3 231.33 240.19C230.857 239.726 230.274 239.391 229.635 239.216C228.996 239.041 228.323 239.032 227.68 239.19C226.62 239.39 225.42 238.72 224.31 238.84C222.03 239.07 220.76 237.54 219.16 236.39C217.92 235.51 216.29 234.73 214.89 236.56C212.89 235.31 211.38 233.8 211.14 231.42C211.093 229.981 210.57 228.598 209.652 227.489C208.735 226.379 207.475 225.606 206.07 225.29C204.81 224.967 203.501 224.882 202.21 225.04C201.6 225.179 200.963 225.136 200.376 224.918C199.79 224.699 199.28 224.314 198.91 223.81C197.67 222.23 196.58 220.39 194.27 219.97C193.9 219.97 193.42 219.25 193.34 218.8C193.281 218.259 193.057 217.75 192.699 217.341C192.342 216.931 191.867 216.641 191.34 216.51C190.795 216.338 190.236 216.215 189.67 216.14C189.007 216.045 188.333 216.045 187.67 216.14C186.365 216.331 185.035 216.253 183.762 215.909C182.489 215.565 181.301 214.963 180.27 214.14C177.01 211.64 171.6 212.94 169.27 216.33L169.17 216.47C168.68 217.17 168.17 217.88 167.63 218.63C166.961 218.041 166.242 217.513 165.48 217.05C164.42 216.52 163.37 216.05 162.17 217.1C161.805 217.262 161.405 217.33 161.007 217.299C160.609 217.267 160.225 217.137 159.89 216.92C159.71 216.77 161.21 212.41 161.06 212.26H154.4C154.49 212.55 157.4 217.07 157.49 217.26L161.87 219.56Z" fill="url(#paint2_linear)"/>
<path d="M262.81 287.08C260.96 290.98 257.81 294.08 254.6 296.96C247.007 303.994 238.683 310.196 229.77 315.46C224.429 318.577 218.808 321.189 212.98 323.26C186.59 332.52 157.52 328.95 130.14 323.26C116.41 320.41 102.22 317.05 88.52 320.02C79.52 321.97 71.35 326.52 63.32 331.02L31.54 348.86C26.1139 343.125 21.3042 336.838 17.19 330.1C13.5709 324.194 10.5557 317.939 8.19 311.43C5.67649 304.362 3.83501 297.073 2.69 289.66C8.07 287.11 16.89 287.87 21.86 286.93C32.69 284.87 43.29 281.69 53.86 278.52L83.2 269.7C88.72 268.04 94.2 266.38 99.59 264.25C104.53 262.25 109.32 259.9 114.43 258.43C122.58 256.08 131.19 256.12 139.66 256.16L181.77 256.41C182.576 256.34 183.385 256.492 184.11 256.85C186 258.03 185.11 260.98 183.72 262.71C177.9 270.03 167.91 272.42 158.63 273.36C155.88 273.64 153.04 273.86 150.58 275.1C148.12 276.34 146.08 278.92 146.41 281.66C146.88 285.8 151.8 287.58 155.88 288.41C167.827 290.79 179.867 292.613 192 293.88C198.77 294.57 205.63 295.06 212.36 294.05C230.16 291.39 245 278.61 262.57 274.73C265 278.3 264.66 283.19 262.81 287.08Z" fill="#D39877"/>
<path d="M199.59 218.94C253.134 218.94 296.54 216.173 296.54 212.76C296.54 209.347 253.134 206.58 199.59 206.58C146.046 206.58 102.64 209.347 102.64 212.76C102.64 216.173 146.046 218.94 199.59 218.94Z" fill="#3E3E54"/>
<path d="M171.24 198.35C176.429 197.225 181.699 196.512 187 196.22C194.2 195.69 201.5 195.35 208.58 196.77C213.257 197.861 217.854 199.267 222.34 200.98C241.284 207.545 260.908 211.953 280.84 214.12C243.32 215.4 205.78 214.12 168.3 212.29C163.167 212.03 158.037 211.76 152.91 211.48C148.99 211.27 142.23 212.14 138.85 210.42C141.07 206.87 149.41 206.01 153.14 204.6C159.12 202.36 165 199.84 171.24 198.35Z" fill="#3E3E54"/>
<path d="M176.34 199.86C176.34 199.86 173.92 145 162.34 125.64L165.83 124.03C165.83 124.03 182.24 199.59 182.51 200.4C182.78 201.21 180.37 203.62 176.34 199.86Z" fill="#3E3E54"/>
<path d="M211 106.53C209.92 106.23 208.78 106.223 207.696 106.507C206.613 106.792 205.624 107.359 204.83 108.15C203.266 109.767 202.352 111.902 202.26 114.15C202.309 115.032 202.159 115.914 201.82 116.73C201.394 117.361 200.834 117.89 200.18 118.28C197.669 119.906 195.701 122.246 194.53 125C193.53 127.79 193.99 131.26 196.25 133.19C193.25 136.05 191.51 140.52 192.8 144.46C194.09 148.4 199.03 151.02 202.7 149.1C202.908 150.666 203.59 152.131 204.654 153.298C205.719 154.465 207.115 155.279 208.655 155.63C210.196 155.98 211.807 155.851 213.272 155.259C214.736 154.668 215.985 153.642 216.85 152.32C218.78 154.62 222.55 154.73 225.03 153.04C226.225 152.125 227.199 150.952 227.877 149.608C228.556 148.264 228.923 146.785 228.95 145.28C228.984 142.273 228.487 139.283 227.48 136.45C230.05 135.7 232.76 134.87 234.59 132.91C236.42 130.95 236.95 127.49 234.94 125.7C236.432 124.636 237.585 123.163 238.259 121.459C238.934 119.755 239.101 117.892 238.74 116.095C238.38 114.299 237.507 112.644 236.228 111.332C234.949 110.02 233.317 109.106 231.53 108.7C229.65 108.22 227.9 108.77 226.41 107.32C225.26 106.19 225.11 104.03 224.31 102.65C220.77 96.5898 210.33 98.8398 211 106.53Z" fill="#329094"/>
<path d="M212.72 152.15C212.65 150.31 212.6 148.35 213.54 146.77C214.132 145.886 214.865 145.106 215.71 144.46C217.082 143.223 218.588 142.143 220.2 141.24C221.829 140.34 223.706 139.989 225.55 140.24C223.5 142.12 220.55 142.75 218.41 144.49C215.959 146.586 214.063 149.255 212.89 152.26C211.26 157.65 211.18 164.16 210.34 169.75C209.5 175.34 208.66 181.1 207.81 186.75C206.93 192.75 205.39 198.96 205.15 205C205.15 205.85 201.99 207.26 199.55 202.31C202.55 193.31 205.03 184.14 207.29 174.95C209.2 167.12 210.89 159.21 212.06 151.23C212.59 147.63 213.49 143.53 213.3 139.89C213.09 136.04 209.03 132.27 205.79 130.62C205.57 130.5 205.34 130.39 205.11 130.29C204.77 130.53 205.03 131.07 205.31 131.39C207.77 134.13 211.08 136.32 212.37 139.77C212.71 140.68 212.89 141.64 213.2 142.56C213 141.97 213.72 140.25 213.63 139.4C213.467 138.267 213.38 137.124 213.37 135.98C213.412 133.301 213.214 130.624 212.78 127.98L216.62 127.71C216.62 127.71 215 138.51 213 152.04" fill="#3E3E54"/>
<path d="M254.38 113.91C253.3 113.61 252.16 113.602 251.076 113.886C249.992 114.171 249.003 114.738 248.21 115.53C246.646 117.147 245.732 119.283 245.64 121.53C245.685 122.412 245.535 123.293 245.2 124.11C244.774 124.741 244.214 125.27 243.56 125.66C241.05 127.284 239.083 129.62 237.91 132.37C236.91 135.17 237.36 138.64 239.63 140.57C236.63 143.43 234.89 147.9 236.18 151.84C237.47 155.78 242.41 158.4 246.08 156.48C246.288 158.046 246.97 159.511 248.034 160.679C249.099 161.846 250.495 162.659 252.035 163.01C253.576 163.361 255.187 163.231 256.652 162.64C258.116 162.048 259.365 161.022 260.23 159.7C262.16 162 265.93 162.11 268.41 160.42C269.602 159.502 270.573 158.328 271.252 156.986C271.93 155.643 272.298 154.164 272.33 152.66C272.361 149.653 271.86 146.663 270.85 143.83C273.43 143.08 276.13 142.25 277.97 140.29C279.81 138.33 280.32 134.87 278.32 133.08C279.812 132.016 280.965 130.544 281.64 128.84C282.314 127.136 282.481 125.273 282.12 123.476C281.76 121.679 280.887 120.025 279.608 118.712C278.329 117.4 276.697 116.486 274.91 116.08C273.03 115.6 271.28 116.15 269.79 114.7C268.63 113.57 268.48 111.41 267.69 110.03C264.15 103.98 253.71 106.22 254.38 113.91Z" fill="#329094"/>
<path d="M256.1 159.53C256.03 157.69 255.98 155.73 256.91 154.15C257.506 153.266 258.242 152.486 259.09 151.84C260.462 150.603 261.968 149.523 263.58 148.62C265.209 147.719 267.085 147.368 268.93 147.62C266.88 149.5 263.93 150.13 261.79 151.87C259.339 153.968 257.44 156.636 256.26 159.64C254.64 165.03 254.56 171.54 253.72 177.13C252.88 182.72 252.03 188.48 251.19 194.13C250.31 200.13 248.77 206.34 248.52 212.38C248.52 213.23 245.37 214.64 242.93 209.69C245.93 200.69 248.41 191.52 250.66 182.33C252.58 174.5 254.27 166.59 255.44 158.61C255.96 155.01 256.87 150.91 256.67 147.27C256.47 143.42 252.4 139.65 249.17 138C248.95 137.88 248.72 137.77 248.49 137.67C248.15 137.91 248.4 138.45 248.69 138.77C251.15 141.51 254.46 143.7 255.75 147.15C256.09 148.06 256.27 149.02 256.58 149.94C256.38 149.35 257.1 147.63 257 146.78C256.847 145.646 256.76 144.504 256.74 143.36C256.792 140.681 256.594 138.002 256.15 135.36L260 135.09C260 135.09 258.38 145.89 256.36 159.42" fill="#3E3E54"/>
<path d="M225.36 156.32C224.757 156.152 224.121 156.148 223.517 156.308C222.912 156.468 222.361 156.786 221.92 157.23C221.043 158.135 220.53 159.331 220.48 160.59C220.505 161.083 220.419 161.574 220.23 162.03C219.994 162.383 219.683 162.68 219.32 162.9C217.917 163.807 216.816 165.113 216.16 166.65C215.857 167.427 215.79 168.276 215.968 169.091C216.145 169.906 216.56 170.65 217.16 171.23C216.292 172 215.653 172.995 215.314 174.105C214.975 175.214 214.95 176.396 215.24 177.52C215.96 179.72 218.71 181.19 220.76 180.12C220.879 180.994 221.263 181.81 221.858 182.46C222.454 183.11 223.234 183.562 224.094 183.757C224.955 183.952 225.853 183.879 226.671 183.549C227.489 183.219 228.186 182.647 228.67 181.91C229.259 182.51 230.042 182.88 230.88 182.956C231.717 183.031 232.554 182.805 233.24 182.32C233.905 181.808 234.447 181.153 234.826 180.403C235.205 179.654 235.412 178.829 235.43 177.99C235.447 176.308 235.169 174.636 234.61 173.05C236.098 172.753 237.48 172.063 238.61 171.05C239.61 169.96 239.92 168.05 238.81 167.05C239.633 166.451 240.267 165.628 240.637 164.679C241.007 163.731 241.096 162.696 240.895 161.697C240.694 160.699 240.211 159.78 239.503 159.048C238.794 158.316 237.891 157.803 236.9 157.57C235.85 157.3 234.9 157.57 234.04 156.8C233.39 156.17 233.31 154.96 232.86 154.19C230.82 150.77 225 152.03 225.36 156.32Z" fill="#329094"/>
<path d="M226.32 181.81C226.186 180.787 226.345 179.746 226.78 178.81C227.105 178.313 227.515 177.877 227.99 177.52C228.754 176.825 229.597 176.221 230.5 175.72C231.413 175.213 232.466 175.017 233.5 175.16C232.36 176.16 230.72 176.56 229.5 177.53C228.132 178.704 227.071 180.194 226.41 181.87C225.51 184.87 225.46 188.52 224.99 191.64L223.58 201.15C223.09 204.49 222.23 207.98 222.09 211.35C222.09 211.83 220.33 212.61 218.97 209.85C220.62 204.85 222.03 199.7 223.29 194.56C224.36 190.19 225.29 185.77 225.95 181.31C226.383 179.227 226.614 177.107 226.64 174.98C226.53 172.83 224.26 170.72 222.45 169.8L222.07 169.61C221.88 169.75 222.07 170.05 222.18 170.23C223.56 171.76 225.41 172.98 226.13 174.91C226.32 175.42 226.42 175.91 226.59 176.47C226.48 176.14 226.88 175.18 226.83 174.71C226.739 174.074 226.689 173.433 226.68 172.79C226.71 171.29 226.6 169.79 226.35 168.31L228.5 168.16L226.5 181.75" fill="#3E3E54"/>
<path d="M278.7 157.18C278.101 156.911 277.441 156.805 276.787 156.873C276.134 156.942 275.51 157.182 274.98 157.57C273.932 158.375 273.219 159.54 272.98 160.84C272.925 161.352 272.762 161.846 272.5 162.29C272.2 162.624 271.827 162.884 271.41 163.05C269.811 163.773 268.463 164.957 267.54 166.45C267.099 167.203 266.89 168.07 266.939 168.942C266.989 169.814 267.296 170.652 267.82 171.35C266.795 172.012 265.973 172.944 265.443 174.043C264.914 175.142 264.698 176.366 264.82 177.58C265.23 179.98 267.82 181.93 270.15 181.14C270.134 182.066 270.401 182.974 270.916 183.744C271.43 184.513 272.168 185.107 273.03 185.446C273.892 185.784 274.836 185.851 275.737 185.637C276.638 185.423 277.452 184.939 278.07 184.25C278.589 184.963 279.345 185.468 280.201 185.677C281.058 185.885 281.961 185.784 282.75 185.39C283.53 184.966 284.205 184.373 284.725 183.652C285.244 182.932 285.595 182.104 285.75 181.23C286.028 179.489 286.001 177.712 285.67 175.98C287.248 175.909 288.778 175.415 290.1 174.55C291.34 173.55 291.94 171.62 290.94 170.41C291.891 169.919 292.68 169.165 293.214 168.239C293.749 167.312 294.005 166.251 293.954 165.182C293.902 164.114 293.544 163.083 292.923 162.212C292.302 161.341 291.443 160.667 290.45 160.27C289.45 159.83 288.34 160 287.61 159.02C287.03 158.26 287.14 157.02 286.8 156.13C285.23 152.27 279 152.66 278.7 157.18Z" fill="#329094"/>
<path d="M275.69 183.77C275.716 182.702 276.042 181.662 276.63 180.77C277.052 180.306 277.549 179.917 278.1 179.62C279.002 179.024 279.968 178.531 280.98 178.15C282.003 177.769 283.123 177.731 284.17 178.04C282.82 178.95 281.07 179.04 279.66 179.88C278.053 180.871 276.716 182.246 275.77 183.88C274.35 186.88 273.77 190.62 272.77 193.79L269.77 203.44C268.77 206.83 267.29 210.31 266.62 213.79C266.53 214.28 264.62 214.79 263.62 211.79C266.13 206.79 268.4 201.74 270.51 196.6C272.31 192.23 273.98 187.8 275.36 183.27C276.137 181.173 276.71 179.007 277.07 176.8C277.29 174.56 275.27 172.01 273.54 170.8L273.17 170.55C272.95 170.66 273.05 171 273.17 171.21C274.36 173.01 276.08 174.57 276.53 176.69C276.64 177.24 276.66 177.82 276.76 178.38C276.7 178.02 277.27 177.08 277.29 176.58C277.296 175.911 277.346 175.243 277.44 174.58C277.7 173.027 277.82 171.454 277.8 169.88L280.05 170.06L275.81 183.85" fill="#3E3E54"/>
<path d="M119.22 157.18C118.526 157.242 117.86 157.483 117.288 157.882C116.716 158.28 116.259 158.82 115.96 159.45C115.388 160.733 115.31 162.182 115.74 163.52C115.956 164.028 116.059 164.578 116.04 165.13C115.923 165.59 115.708 166.02 115.41 166.39C114.29 167.879 113.639 169.669 113.54 171.53C113.508 172.461 113.753 173.382 114.245 174.174C114.736 174.966 115.451 175.595 116.3 175.98C115.682 177.119 115.391 178.407 115.462 179.702C115.533 180.996 115.961 182.245 116.7 183.31C118.3 185.31 121.7 185.82 123.49 183.91C123.941 184.794 124.654 185.518 125.532 185.981C126.41 186.445 127.41 186.627 128.395 186.501C129.379 186.375 130.301 185.948 131.034 185.278C131.767 184.609 132.276 183.729 132.49 182.76C133.336 183.163 134.298 183.252 135.203 183.01C136.109 182.768 136.898 182.211 137.43 181.44C137.932 180.646 138.251 179.75 138.361 178.817C138.472 177.885 138.373 176.939 138.07 176.05C137.445 174.282 136.51 172.64 135.31 171.2C136.746 170.323 137.922 169.081 138.72 167.6C139.37 166.06 138.93 163.92 137.38 163.31C138.015 162.367 138.365 161.262 138.39 160.126C138.415 158.99 138.113 157.871 137.52 156.902C136.927 155.932 136.067 155.154 135.045 154.659C134.022 154.164 132.878 153.974 131.75 154.11C130.55 154.23 129.64 154.93 128.46 154.39C127.54 153.98 126.99 152.75 126.22 152.11C122.81 149.27 117.18 152.82 119.22 157.18Z" fill="#329094"/>
<path d="M130 183.52C129.461 182.498 129.228 181.341 129.33 180.19C129.485 179.547 129.749 178.935 130.11 178.38C130.644 177.358 131.295 176.402 132.05 175.53C132.809 174.655 133.829 174.049 134.96 173.8C134.16 175.33 132.59 176.33 131.69 177.8C130.705 179.552 130.166 181.52 130.12 183.53C130.32 187.03 131.67 190.86 132.38 194.31C133.09 197.76 133.82 201.31 134.55 204.82C135.31 208.51 135.74 212.49 136.89 216.08C137.06 216.58 135.53 218.08 133.04 215.7C132.85 209.8 132.36 203.89 131.71 198.03C131.15 193.03 130.45 188.03 129.42 183.12C129.071 180.769 128.502 178.455 127.72 176.21C126.78 174.01 123.59 172.67 121.34 172.39H120.87C120.72 172.6 120.99 172.86 121.22 172.99C123.22 174.06 125.66 174.64 127.15 176.38C127.54 176.84 127.86 177.38 128.23 177.84C127.99 177.54 128.04 176.37 127.81 175.9C127.471 175.253 127.174 174.585 126.92 173.9C126.371 172.318 125.682 170.789 124.86 169.33L127.05 168.33C127.05 168.33 128.42 175 130.13 183.33" fill="#3E3E54"/>
<path d="M172.25 141.57C173.25 139.85 174.74 138.36 175.5 136.49C176.163 134.515 176.425 132.428 176.27 130.35C176.61 132.243 176.74 134.168 176.66 136.09C177.418 135.853 178.222 135.801 179.004 135.936C179.787 136.072 180.526 136.392 181.16 136.87C179.16 137.05 177.08 137.26 175.45 138.42C173.45 139.85 172.59 142.42 172.31 144.86C172.03 147.3 172.19 149.8 171.65 152.21C171.65 150.41 170.75 148.69 170.55 146.97C170.35 145.25 171.36 143.04 172.25 141.57Z" fill="#3E3E54"/>
<path d="M161.29 132.66C160.85 131.74 160.5 130.66 159.59 130.19L162.9 136.53L157.71 138.18C157.26 138.32 156.71 138.68 156.89 139.11C158.32 139.24 159.7 138.61 161.12 138.41C162.7 138.225 164.297 138.555 165.674 139.352C167.05 140.148 168.133 141.368 168.76 142.83C168.63 142.51 169.06 141.32 169.06 140.9C169.105 140.29 168.987 139.68 168.72 139.13C168.27 138.48 167.2 138.2 166.54 137.79C164.339 136.612 162.518 134.833 161.29 132.66V132.66Z" fill="#3E3E54"/>
<path d="M145.78 160.64C145.089 160.703 144.427 160.948 143.861 161.351C143.296 161.753 142.847 162.298 142.56 162.93C142.003 164.216 141.946 165.664 142.4 166.99C142.616 167.491 142.719 168.034 142.7 168.58C142.592 169.04 142.384 169.47 142.09 169.84C140.993 171.336 140.37 173.126 140.3 174.98C140.28 175.903 140.534 176.811 141.031 177.589C141.528 178.367 142.244 178.98 143.09 179.35C142.491 180.491 142.219 181.776 142.303 183.062C142.388 184.349 142.826 185.587 143.57 186.64C145.18 188.64 148.62 189.07 150.32 187.15C150.785 188.011 151.502 188.71 152.375 189.152C153.249 189.594 154.236 189.759 155.206 189.624C156.175 189.489 157.08 189.061 157.799 188.397C158.519 187.733 159.018 186.865 159.23 185.91C160.078 186.299 161.036 186.373 161.934 186.12C162.831 185.868 163.61 185.304 164.13 184.53C164.619 183.737 164.924 182.845 165.022 181.919C165.121 180.994 165.011 180.057 164.7 179.18C164.058 177.427 163.11 175.802 161.9 174.38C163.315 173.492 164.47 172.247 165.25 170.77C165.88 169.23 165.42 167.11 163.87 166.51C164.492 165.566 164.83 164.463 164.842 163.333C164.855 162.203 164.542 161.093 163.941 160.136C163.34 159.179 162.477 158.415 161.453 157.935C160.43 157.455 159.29 157.28 158.17 157.43C156.97 157.57 156.08 158.27 154.9 157.76C153.98 157.36 153.42 156.14 152.65 155.51C149.26 152.74 143.7 156.33 145.78 160.64Z" fill="#329094"/>
<path d="M160.19 218.68C160.19 218.68 158.69 184.68 151.52 172.68L153.69 171.68C153.69 171.68 163.85 218.51 164 218.98C164.15 219.45 162.69 220.98 160.19 218.68Z" fill="#3E3E54"/>
<path d="M157.65 182.55C158.393 181.554 159.061 180.504 159.65 179.41C160.057 178.184 160.217 176.889 160.12 175.6C160.33 176.774 160.41 177.968 160.36 179.16C160.83 179.014 161.328 178.982 161.813 179.065C162.297 179.149 162.756 179.346 163.15 179.64C161.902 179.655 160.681 180 159.61 180.64C159.029 181.138 158.556 181.75 158.221 182.438C157.885 183.126 157.694 183.876 157.66 184.64C157.607 186.166 157.474 187.688 157.26 189.2C157.096 188.105 156.869 187.019 156.58 185.95C156.584 184.735 156.957 183.549 157.65 182.55V182.55Z" fill="#3E3E54"/>
<path d="M150.86 177.03C150.58 176.46 150.37 175.78 149.8 175.5L151.8 179.43L148.59 180.43C148.31 180.52 147.96 180.75 148.08 181.01C148.967 180.965 149.846 180.821 150.7 180.58C151.68 180.462 152.672 180.665 153.527 181.159C154.382 181.654 155.053 182.412 155.44 183.32C155.36 183.12 155.62 182.38 155.62 182.12C155.651 181.741 155.579 181.361 155.41 181.02C155.13 180.62 154.47 180.45 154.06 180.19C152.72 179.455 151.612 178.36 150.86 177.03Z" fill="#3E3E54"/>
<path d="M239.54 67.0099C252.905 67.0099 263.74 56.1752 263.74 42.8099C263.74 29.4446 252.905 18.6099 239.54 18.6099C226.175 18.6099 215.34 29.4446 215.34 42.8099C215.34 56.1752 226.175 67.0099 239.54 67.0099Z" fill="#329094"/>
<path d="M203.14 27.2502C206.938 33.3345 208.831 40.4145 208.578 47.5822C208.325 54.75 205.937 61.6789 201.72 67.4802C207.59 67.8802 213.52 69.1102 218.6 72.0902C223.68 75.0702 227.82 79.9702 228.91 85.7602C233.442 79.5295 240.19 75.2737 247.765 73.8691C255.34 72.4646 263.166 74.0183 269.63 78.2102C268.63 69.7502 263.79 61.3502 266.17 53.1602C267.93 47.1602 273.17 42.8702 278.17 39.0202C273.684 35.8914 270.146 31.5884 267.943 26.5826C265.74 21.5768 264.957 16.0614 265.68 10.6402C260.78 14.7502 253.73 15.6402 247.53 14.1102C242.34 12.7902 239.09 9.38023 234.53 7.16023C231.53 5.71023 232.3 5.81023 230.19 8.45023C228.7 10.3002 227.58 12.3902 226 14.1902C223.008 17.5986 219.47 20.4848 215.53 22.7302C214.36 23.3902 204 28.5802 203.14 27.2502Z" fill="url(#paint3_linear)"/>
<path d="M230.39 310.11L229.77 315.46C224.429 318.578 218.808 321.189 212.98 323.26C186.59 332.52 157.52 328.95 130.14 323.26C116.41 320.41 102.22 317.05 88.52 320.02C79.52 321.97 71.35 326.52 63.32 331.02L31.54 348.86C26.1139 343.126 21.3042 336.838 17.19 330.1C23.69 326.74 65.68 305.44 83.03 307.42C101.85 309.57 153.48 318.71 165.85 318.18C178.22 317.65 230.39 310.11 230.39 310.11Z" fill="url(#paint4_linear)"/>
</g>
<defs>
<linearGradient id="paint0_linear" x1="228.3" y1="237.8" x2="379.47" y2="305.59" gradientUnits="userSpaceOnUse">
<stop offset="0.02" stop-color="white" stop-opacity="0"/>
<stop offset="0.32" stop-color="white" stop-opacity="0.39"/>
<stop offset="0.68" stop-color="white" stop-opacity="0.68"/>
<stop offset="1" stop-color="white"/>
</linearGradient>
<linearGradient id="paint1_linear" x1="80.3" y1="321.78" x2="198.62" y2="234.65" gradientUnits="userSpaceOnUse">
<stop offset="0.01"/>
<stop offset="0.13" stop-opacity="0.69"/>
<stop offset="1" stop-opacity="0"/>
</linearGradient>
<linearGradient id="paint2_linear" x1="17282.9" y1="12616.8" x2="16249.2" y2="42275.1" gradientUnits="userSpaceOnUse">
<stop offset="0.01"/>
<stop offset="0.13" stop-opacity="0.69"/>
<stop offset="1" stop-opacity="0"/>
</linearGradient>
<linearGradient id="paint3_linear" x1="16234.8" y1="4301.84" x2="22078.7" y2="4301.84" gradientUnits="userSpaceOnUse">
<stop offset="0.02" stop-color="white" stop-opacity="0"/>
<stop offset="0.32" stop-color="white" stop-opacity="0.39"/>
<stop offset="0.68" stop-color="white" stop-opacity="0.68"/>
<stop offset="1" stop-color="white"/>
</linearGradient>
<linearGradient id="paint4_linear" x1="28861" y1="18925.5" x2="28808.7" y2="9729.43" gradientUnits="userSpaceOnUse">
<stop offset="0.01"/>
<stop offset="0.13" stop-opacity="0.69"/>
<stop offset="1" stop-opacity="0"/>
</linearGradient>
<clipPath id="clip0">
<rect width="417.8" height="388.72" fill="white"/>
</clipPath>
</defs>
</svg>
