<svg width="249" height="200" viewBox="0 0 249 200" fill="none" xmlns="http://www.w3.org/2000/svg">
<g clip-path="url(#clip0)">
<path opacity="0.18" d="M235.249 138.456C231.325 145.157 228.552 152.468 227.046 160.085C225.076 171.329 218.946 181.42 209.875 188.35C205.265 191.766 200.119 194.394 194.648 196.125C191.126 197.265 187.521 198.131 183.866 198.717H183.671C167.343 201.309 147.01 200.35 131.199 195.62C121.869 192.82 114.43 188.751 104.374 187.844C89.1596 186.406 74.3861 188.051 59.2497 184.604C-22.1085 165.943 -8.38463 89.4835 33.1497 64.5888C48.7786 55.2192 67.8028 51.9794 81.9024 41.1196C87.0861 37.1281 90.2222 30.2857 94.4858 25.3741C102.793 15.8231 113.925 7.60698 125.86 3.34339C159.075 -8.38472 193.093 12.7907 217.974 33.0719C265.353 71.7423 247.262 117.825 235.249 138.456Z" fill="#DDDDDD"/>
<path d="M135.67 115.156V34.4456H127.389L144.975 13.9829L165.01 34.6659H156.042V134.478L135.67 115.156Z" fill="#329094"/>
<path d="M135.67 115.156V34.4456H127.389L144.975 13.9829L165.01 34.6659H156.042V134.478L135.67 115.156Z" fill="url(#paint0_linear)"/>
<path d="M120.495 116.918V59.0942H112.201L129.8 38.6445L149.822 59.3145H140.854V117.437L120.495 116.918Z" fill="#329094"/>
<path d="M113.795 146.297V80.9693H107.691L120.651 65.9106L135.385 81.1248H128.789V123.903L113.795 146.297Z" fill="#329094"/>
<path d="M113.795 146.297V80.9693H107.691L120.651 65.9106L135.385 81.1248H128.789V123.903L113.795 146.297Z" fill="url(#paint1_linear)"/>
<path d="M209.862 188.35C205.252 191.766 200.106 194.394 194.635 196.125C191.113 197.265 187.508 198.131 183.853 198.717C181.261 196.449 178.319 193.533 176.453 192.095C176.246 191.939 176.064 191.797 175.883 191.68C170.427 187.987 163.844 185.589 157.895 182.777C154.915 181.365 152.025 179.797 149.096 178.28C145.52 176.324 141.803 174.634 137.977 173.226L137.329 173.006L136.837 172.837C134.26 172.168 131.839 171.001 129.709 169.403C127.584 167.55 126.366 164.906 125.044 162.431C123.009 158.621 122.309 153.632 118.279 152.064C116.452 151.364 115.843 149.122 115.687 147.204C115.322 141.604 115.614 135.98 116.555 130.448C117.273 125.022 118.003 119.592 118.746 114.158C118.793 113.488 118.979 112.835 119.29 112.24C119.754 111.619 120.43 111.19 121.19 111.034C121.95 110.879 122.74 111.008 123.411 111.398C124.724 112.238 125.654 113.559 126.003 115.078C127.402 120.016 125.186 125.64 127.299 130.279V130.37C127.932 131.558 128.697 132.671 129.579 133.688C132.171 136.901 134.763 140.167 137.601 143.044C139.069 144.79 140.961 146.129 143.096 146.932C144.162 147.321 145.327 147.349 146.411 147.012C147.495 146.675 148.438 145.991 149.096 145.066L149.278 144.742C149.589 143.816 149.701 142.835 149.605 141.863C149.509 140.891 149.207 139.951 148.72 139.105C147.169 136.308 145.336 133.677 143.251 131.251C142.076 129.766 141.064 128.158 140.232 126.456C138.972 123.671 138.433 120.614 138.664 117.566C138.64 116.161 139.097 114.789 139.96 113.679C140.945 112.655 142.953 112.279 143.718 113.471C148.293 120.417 149.316 126.327 156.833 132.353C158.867 133.973 164.725 140.608 166.915 142.007C173.615 146.297 177.282 153.852 181.909 160.345C186.535 166.837 191.978 172.202 197.46 177.658C199.832 179.511 206.752 184.617 209.862 188.35Z" fill="#FFBBAB"/>
<path d="M148.837 138.897C147.29 136.09 145.457 133.449 143.368 131.018C143.614 129.955 144.327 129.722 146.115 131.51C149.044 134.323 152.971 141.593 157.558 142.085C155.031 141.813 152.167 141.632 150.288 143.381C149.93 143.715 149.628 144.104 149.394 144.534C149.71 143.61 149.824 142.628 149.728 141.655C149.631 140.683 149.328 139.742 148.837 138.897V138.897Z" fill="url(#paint2_linear)"/>
<path d="M172.112 161.433C161.032 164.207 155.602 175.572 149.9 165.671C149.355 167.913 141.645 153.424 141.1 155.666C141.956 152.271 132.832 158.608 130.124 156.392C127.415 154.176 131.264 143.511 128.102 145.04C125.396 140.22 124.583 134.565 125.821 129.178L127.376 130.344C128.01 131.536 128.775 132.653 129.657 133.675C132.249 136.876 134.841 140.076 137.679 143.018C139.155 144.755 141.045 146.092 143.174 146.906C144.242 147.275 145.401 147.294 146.48 146.958C147.56 146.622 148.503 145.95 149.174 145.04C149.183 145.015 149.183 144.987 149.174 144.962C148.616 146.268 148.511 147.723 148.876 149.096C149.481 151.041 150.579 152.795 152.064 154.189C154.675 156.786 157.822 158.78 161.286 160.031C164.749 161.282 168.444 161.761 172.112 161.433Z" fill="url(#paint3_linear)"/>
<path d="M155.148 144.418C153.788 147.32 151.388 149.605 148.422 150.82C149.833 153.175 151.41 155.427 153.139 157.559C150.171 155.821 147.376 153.804 144.794 151.533C142.202 149.187 139.079 146.349 135.618 147.113C133.26 147.619 131.135 149.783 128.633 147.774C127.893 147.154 127.345 146.336 127.052 145.416C126.223 142.824 125.342 140.31 124.655 137.64C124.259 136.491 124.027 135.291 123.968 134.076C123.968 133.441 124.448 131.679 123.191 132.288C120.617 133.543 118.325 135.307 116.452 137.472C116.925 136.04 117.293 134.577 117.553 133.092C117.694 131.615 117.999 130.159 118.46 128.75L120.119 123.955C120.647 122.611 121 121.204 121.169 119.769C121.311 117.722 118.94 112.59 121.817 111.489C123.709 110.75 125.549 113.484 125.977 114.962C127.376 119.886 125.16 125.51 127.273 130.15C128.121 131.696 129.138 133.143 130.305 134.465C132.494 137.298 134.835 140.01 137.316 142.591C139.325 144.677 141.593 146.815 144.664 147.023C145.888 147.135 147.109 146.784 148.085 146.038C150.418 144.198 149.887 141.191 148.772 138.858C146.582 134.258 142.422 130.824 140.284 126.197C139.036 123.409 138.497 120.355 138.716 117.307C138.687 115.901 139.145 114.527 140.012 113.419C144.172 109.065 145.195 118.396 145.455 120.521C146.03 123.927 147.072 127.236 148.552 130.357C149.161 131.809 150.042 133.48 151.61 133.688L149.187 134.686C149.475 136.625 150.151 138.487 151.176 140.159C152.2 141.832 153.551 143.28 155.148 144.418Z" fill="url(#paint4_linear)"/>
<path d="M148.785 91.5959C148.507 95.149 146.999 98.4942 144.521 101.056C142.302 103.249 140.721 106.004 139.947 109.026C139.74 109.946 139.623 110.905 139.454 111.916H125.834C125.731 111.229 125.666 110.529 125.536 109.855C124.954 106.94 123.567 104.247 121.532 102.08C119.723 100.217 118.3 98.0151 117.346 95.6003C116.537 93.3502 116.232 90.9502 116.451 88.5693C116.67 86.1884 117.409 83.8845 118.614 81.8199C119.82 79.7553 121.464 77.9802 123.43 76.6197C125.396 75.2592 127.637 74.3463 129.994 73.9454C130.422 73.9454 130.862 73.8287 131.29 73.7899C133.664 73.5958 136.051 73.9259 138.283 74.7566C140.515 75.5874 142.537 76.8985 144.206 78.5973C145.875 80.2961 147.15 82.3409 147.942 84.5871C148.733 86.8334 149.021 89.226 148.785 91.5959V91.5959Z" fill="white"/>
<path d="M146.115 91.596C145.836 95.1464 144.334 98.49 141.865 101.056C139.637 103.242 138.054 106 137.29 109.026C137.07 109.946 136.966 110.905 136.798 111.916H125.834C125.731 111.229 125.666 110.529 125.536 109.856C124.954 106.941 123.567 104.247 121.532 102.08C119.723 100.217 118.3 98.0152 117.346 95.6004C116.537 93.3504 116.232 90.9504 116.451 88.5695C116.67 86.1886 117.409 83.8847 118.614 81.8201C119.82 79.7555 121.464 77.9804 123.43 76.6199C125.396 75.2593 127.637 74.3465 129.994 73.9456C130.422 73.9456 130.862 73.8289 131.29 73.79C133.439 73.9703 135.53 74.5759 137.442 75.5717C139.354 76.5675 141.05 77.9336 142.429 79.5905C143.809 81.2474 144.845 83.162 145.478 85.2231C146.111 87.2841 146.327 89.4505 146.115 91.596V91.596Z" fill="url(#paint5_linear)"/>
<path d="M139.765 111.864H126.262C125.281 111.864 124.486 112.659 124.486 113.64C124.486 114.62 125.281 115.415 126.262 115.415H139.765C140.746 115.415 141.541 114.62 141.541 113.64C141.541 112.659 140.746 111.864 139.765 111.864Z" fill="#329094"/>
<path d="M138.755 114.845H126.664C125.79 114.845 125.083 115.553 125.083 116.426V116.439C125.083 117.312 125.79 118.02 126.664 118.02H138.755C139.628 118.02 140.336 117.312 140.336 116.439V116.426C140.336 115.553 139.628 114.845 138.755 114.845Z" fill="#329094"/>
<path d="M137.951 117.437H127.467C126.708 117.437 126.093 118.052 126.093 118.81V118.823C126.093 119.582 126.708 120.197 127.467 120.197H137.951C138.71 120.197 139.325 119.582 139.325 118.823V118.81C139.325 118.052 138.71 117.437 137.951 117.437Z" fill="#329094"/>
<path d="M139.765 111.864H126.262C125.281 111.864 124.486 112.659 124.486 113.64C124.486 114.62 125.281 115.415 126.262 115.415H139.765C140.746 115.415 141.541 114.62 141.541 113.64C141.541 112.659 140.746 111.864 139.765 111.864Z" fill="url(#paint6_linear)"/>
<path d="M138.755 114.845H126.664C125.79 114.845 125.083 115.553 125.083 116.426V116.439C125.083 117.312 125.79 118.02 126.664 118.02H138.755C139.628 118.02 140.336 117.312 140.336 116.439V116.426C140.336 115.553 139.628 114.845 138.755 114.845Z" fill="url(#paint7_linear)"/>
<path d="M137.951 117.437H127.467C126.708 117.437 126.093 118.052 126.093 118.81V118.823C126.093 119.582 126.708 120.197 127.467 120.197H137.951C138.71 120.197 139.325 119.582 139.325 118.823V118.81C139.325 118.052 138.71 117.437 137.951 117.437Z" fill="url(#paint8_linear)"/>
<path d="M129.255 111.812C129.154 109.323 128.838 106.847 128.309 104.413C127.895 102.392 127.592 100.35 127.402 98.296C127.195 95.1987 127.804 93.0216 129.281 91.6608C129.403 91.5095 129.557 91.3873 129.732 91.3034C129.907 91.2194 130.098 91.1759 130.292 91.1759C130.486 91.1759 130.678 91.2194 130.853 91.3034C131.028 91.3873 131.182 91.5095 131.303 91.6608L131.433 91.5053C131.684 91.1879 132.021 90.9495 132.405 90.8185C132.799 90.7141 133.218 90.77 133.571 90.974C133.818 91.1257 134.034 91.3237 134.206 91.5572C134.409 91.4266 134.637 91.3386 134.875 91.2985C135.114 91.2584 135.358 91.2671 135.593 91.3239C136.487 91.5442 137.096 92.3736 137.355 93.7343C137.769 96.9857 137.522 100.287 136.629 103.441C135.918 106.11 135.612 108.871 135.722 111.631L134.75 111.722C134.627 108.862 134.938 106 135.67 103.233C136.357 100.02 136.966 96.9741 136.409 93.9287C136.292 93.3715 136.02 92.4254 135.359 92.2699C135.241 92.242 135.119 92.2404 135 92.265C134.881 92.2896 134.77 92.34 134.672 92.4125C134.744 92.5798 134.801 92.7533 134.841 92.9308C135.076 93.9023 135.189 94.8991 135.178 95.8985C135.187 96.0539 135.163 96.2095 135.107 96.3548C135.051 96.5001 134.965 96.6318 134.854 96.7409C134.755 96.8285 134.635 96.8889 134.505 96.9161C134.376 96.9434 134.241 96.9366 134.115 96.8964C133.896 96.7998 133.704 96.6514 133.555 96.4641C133.406 96.2767 133.305 96.0559 133.26 95.8207C132.955 94.915 132.897 93.9443 133.091 93.0086C133.173 92.7242 133.305 92.4565 133.48 92.2181C133.378 92.0561 133.24 91.9189 133.078 91.8163C133.013 91.7885 132.942 91.7742 132.871 91.7742C132.8 91.7742 132.729 91.7885 132.664 91.8163C132.47 91.9036 132.301 92.0371 132.171 92.2051C132.099 92.2859 132.034 92.3726 131.977 92.4643C132.783 93.5556 133.14 94.9146 132.975 96.2614C132.884 96.9223 132.482 97.5573 131.783 97.5573C131.542 97.5265 131.315 97.4288 131.127 97.2754C130.939 97.1219 130.798 96.9187 130.72 96.689C130.416 96.0423 130.258 95.3366 130.258 94.622C130.258 93.9075 130.416 93.2017 130.72 92.555V92.555C130.487 92.3347 130.344 92.2829 130.279 92.2958C130.145 92.3363 130.024 92.4125 129.929 92.5161C128.698 93.6565 128.167 95.6264 128.361 98.3737C128.549 100.389 128.847 102.392 129.255 104.374C129.791 106.869 130.112 109.405 130.214 111.955L129.255 111.812ZM131.472 93.3455C131.159 94.2701 131.205 95.2786 131.601 96.1706C131.705 96.4039 131.795 96.4687 131.821 96.4687C131.934 96.3442 131.999 96.1832 132.003 96.0151C132.122 95.0911 131.936 94.1534 131.472 93.3455V93.3455ZM133.973 93.4492C133.909 94.1533 133.988 94.863 134.206 95.5356V95.5356C134.191 94.8346 134.113 94.1363 133.973 93.4492V93.4492Z" fill="#329094"/>
<path d="M120.443 128.698C120.443 128.698 113.458 143.822 114.158 146.31C114.943 148.409 115.992 150.399 117.281 152.232L123.761 159.632C123.761 159.632 127.091 168.509 129.644 169.287C132.197 170.064 135.631 170.842 135.631 170.842C135.631 170.842 123.424 153.464 122.232 151.481C121.039 149.498 123.994 138.34 124.823 136.746C125.408 135.803 125.845 134.776 126.119 133.701C126.249 133.04 132.262 127.636 132.793 124.992C133.325 122.348 133.415 119.808 132.262 119.057C131.109 118.305 129.852 117.204 129.852 117.204L121.623 126.133L120.443 128.698Z" fill="#FFBBAB"/>
<path d="M119.264 143.537C119.047 144.707 118.977 145.9 119.057 147.088C119.154 148.186 119.412 149.264 119.821 150.288C120.893 152.585 122.363 154.673 124.163 156.457C125.769 158.228 127.394 159.956 129.035 161.641C130.474 156.587 128.698 151.273 127.35 146.18C126.003 141.087 125.653 136.707 127.493 131.925C125.679 131.718 123.216 135.061 122.309 136.409C120.778 138.53 119.738 140.964 119.264 143.537V143.537Z" fill="url(#paint9_linear)"/>
<path d="M134.906 129.839C134.906 129.839 125.394 135.502 124.901 136.746C124.409 137.99 121.169 146.44 121.571 150.483C121.972 154.526 136.331 171.373 136.331 171.373C136.331 171.373 167.058 188.739 172.954 187.909C178.85 187.08 186.017 177.088 179.913 170.842C173.809 164.596 160.021 161.965 157.092 161.693C154.163 161.421 146.478 158.246 141.437 155.33C136.396 152.414 131.225 149.096 131.225 149.096C131.225 149.096 129.929 142.617 129.929 142.059C129.929 141.502 135.761 138.081 136.564 135.295C137.368 132.508 136.759 130.474 134.906 129.839Z" fill="#FFBBAB"/>
<path opacity="0.21" d="M127.078 124.409C127.48 124.394 127.873 124.292 128.232 124.111C128.883 123.818 129.503 123.462 130.085 123.048C130.295 122.94 130.482 122.791 130.634 122.611C130.786 122.43 130.9 122.22 130.97 121.994C131.04 121.769 131.064 121.531 131.041 121.296C131.019 121.061 130.949 120.833 130.837 120.625C130.511 119.526 130.077 118.463 129.541 117.45C129.644 117.644 128.154 119.303 127.973 119.523C127.402 120.236 126.793 120.923 126.171 121.597C125.549 122.271 125.134 122.452 125.394 123.217C125.526 123.559 125.757 123.855 126.056 124.067C126.356 124.279 126.711 124.398 127.078 124.409V124.409Z" fill="white"/>
<path opacity="0.21" d="M130.772 135.657C131.465 135.832 132.192 135.817 132.877 135.611C133.561 135.406 134.177 135.019 134.659 134.491C134.873 134.314 135.046 134.093 135.165 133.843C135.25 133.627 135.303 133.4 135.32 133.169C135.403 132.276 135.232 131.378 134.828 130.577C134.285 130.692 133.77 130.912 133.312 131.225L131.472 132.288C130.806 132.563 130.183 132.929 129.618 133.376C128.919 134.232 130.007 135.437 130.772 135.657Z" fill="white"/>
<path d="M134.089 170.349C135.067 171.334 136.154 172.204 137.329 172.941L136.837 172.772C135.857 172.04 134.938 171.23 134.089 170.349V170.349Z" fill="url(#paint10_linear)"/>
<path d="M194.648 196.061C191.126 197.2 187.521 198.067 183.866 198.652H183.671C181.157 196.501 178.384 193.469 176.466 192.004C176.259 191.849 176.077 191.706 175.896 191.59C170.44 187.896 163.857 185.499 157.908 182.687C154.928 181.274 152.038 179.706 149.109 178.19C155.874 180.898 162.651 183.542 169.572 185.784C171.878 186.536 174.561 187.197 176.596 185.862C177.731 184.981 178.623 183.826 179.187 182.505C180.613 179.771 181.883 176.868 183.503 174.263C184.164 175.209 183.166 176.661 182.907 177.697C182.513 179.246 182.394 180.851 182.557 182.44C182.76 184.285 183.33 186.069 184.234 187.689C185.138 189.31 186.356 190.733 187.818 191.875C189.892 193.482 192.484 194.493 194.648 196.061Z" fill="url(#paint11_linear)"/>
<path d="M91.7255 128.154C90.4617 127.869 89.2533 127.379 88.1488 126.702L90.8573 122.296C91.4801 122.671 92.1579 122.947 92.8659 123.113L91.7255 128.154ZM98.3866 127.739L96.6241 122.879C97.3087 122.631 97.9479 122.272 98.5162 121.817L101.743 125.847C100.737 126.659 99.6025 127.299 98.3866 127.739V127.739ZM83.6649 121.752C83.0962 120.586 82.7282 119.333 82.5763 118.045L87.76 117.41C87.8555 118.135 88.0655 118.839 88.382 119.497L83.6649 121.752ZM105.579 120.378L100.693 118.732C100.921 118.038 101.039 117.312 101.043 116.581H106.227C106.221 117.874 106.002 119.157 105.579 120.378V120.378ZM88.3043 113.691L83.6519 111.449C84.2123 110.288 84.9562 109.225 85.855 108.3L89.5484 111.903C89.0446 112.432 88.6251 113.035 88.3043 113.691V113.691ZM99.9676 112.94C99.5672 112.33 99.073 111.788 98.5032 111.333L101.717 107.289C102.729 108.089 103.604 109.048 104.309 110.127L99.9676 112.94ZM92.84 110.063L91.6737 105.021C92.9484 104.734 94.2607 104.651 95.5615 104.775L95.069 109.959C94.3254 109.871 93.5723 109.906 92.84 110.063V110.063Z" fill="white"/>
<path d="M173.459 106.24C172.396 106.004 171.38 105.592 170.453 105.022L171.218 103.726C172.018 104.216 172.893 104.571 173.809 104.776L173.459 106.24ZM179.097 105.851L178.591 104.555C179.46 104.258 180.275 103.821 181.002 103.259L181.922 104.413C181.067 105.046 180.112 105.532 179.097 105.851V105.851ZM166.669 100.797C166.201 99.8105 165.89 98.7567 165.749 97.674L167.213 97.4925C167.337 98.3932 167.603 99.2682 168.004 100.084L166.669 100.797ZM185.175 99.6438L183.788 99.1772C184.078 98.2902 184.227 97.3631 184.229 96.4299H185.706C185.707 97.5369 185.523 98.6362 185.162 99.6827L185.175 99.6438ZM167.991 92.7495L166.695 92.1145C167.168 91.1294 167.798 90.2278 168.561 89.4449L169.624 90.4686C168.947 91.1428 168.391 91.9273 167.978 92.7883L167.991 92.7495ZM182.855 91.7905C182.349 91.0104 181.719 90.3186 180.989 89.7429L181.909 88.5895C182.763 89.2659 183.502 90.0755 184.099 90.987L182.855 91.7905ZM173.783 88.1101L173.446 86.6716C174.514 86.4348 175.611 86.3648 176.699 86.4642L176.505 87.9805C175.586 87.8888 174.658 87.9457 173.758 88.1489L173.783 88.1101Z" fill="#329094"/>
<path d="M80.2436 64.3036H78.4034L77.574 65.4958L82.1098 78.8827L83.4057 79.5825C83.4057 79.5825 91.4015 79.116 97.6609 83.0556C98.5 83.5096 99.4413 83.7415 100.395 83.7295C101.471 83.5351 105.579 82.0966 105.579 82.0966C105.579 82.0966 107.38 79.3622 108.871 77.5609C110.975 75.4999 113.223 73.5901 115.596 71.8459C115.596 71.8459 112.564 54.6101 111.851 53.5085C111.138 52.407 110.296 52.7569 110.296 52.7569L96.5982 64.6794L80.2436 64.3036Z" fill="#329094"/>
<path d="M110.413 56.8003C110.93 58.2818 111.282 59.816 111.462 61.3749L112.758 69.7595C112.868 70.1845 112.868 70.6305 112.758 71.0555C112.467 71.6083 112.015 72.06 111.462 72.3514C109.873 73.4904 108.547 74.9577 107.575 76.6538C106.486 78.5459 105.553 80.9563 103.428 81.4617C102.132 81.7857 100.46 81.2025 99.3067 82.006C95.0385 79.3262 90.091 77.9274 85.0515 77.9757L80.7361 66.2217C80.4547 65.5894 80.309 64.9051 80.3084 64.213C80.3991 62.7615 81.721 61.4656 81.3711 60.0531C87.7381 62.4932 94.4733 63.8342 101.289 64.0186C101.49 64.0689 101.699 64.0738 101.902 64.0329C102.104 63.992 102.295 63.9063 102.461 63.782C102.626 63.6578 102.761 63.4982 102.857 63.3149C102.952 63.1316 103.006 62.9293 103.013 62.7227C103.428 61.012 103.804 59.3014 104.153 57.539C104.4 56.3208 104.361 52.6922 105.151 51.8239C107.017 49.8023 109.739 55.0508 110.413 56.8003Z" fill="white"/>
<path d="M110.413 56.8003C110.93 58.2818 111.282 59.816 111.462 61.3749L112.758 69.7595C112.868 70.1845 112.868 70.6305 112.758 71.0555C112.467 71.6083 112.015 72.06 111.462 72.3514C109.873 73.4904 108.547 74.9577 107.575 76.6538C106.486 78.5459 105.553 80.9563 103.428 81.4617C102.132 81.7857 100.46 81.2025 99.3067 82.006C95.0385 79.3262 90.091 77.9274 85.0515 77.9757L80.7361 66.2217C80.4547 65.5894 80.309 64.9051 80.3084 64.213C80.3991 62.7615 81.721 61.4656 81.3711 60.0531C87.7381 62.4932 94.4733 63.8342 101.289 64.0186C101.49 64.0689 101.699 64.0738 101.902 64.0329C102.104 63.992 102.295 63.9063 102.461 63.782C102.626 63.6578 102.761 63.4982 102.857 63.3149C102.952 63.1316 103.006 62.9293 103.013 62.7227C103.428 61.012 103.804 59.3014 104.153 57.539C104.4 56.3208 104.361 52.6922 105.151 51.8239C107.017 49.8023 109.739 55.0508 110.413 56.8003Z" fill="url(#paint12_linear)"/>
<path d="M81.1508 59.9235C83.5531 64.8057 85.4758 69.9097 86.8917 75.1635C86.9037 75.3504 86.9626 75.5313 87.0629 75.6894C87.1633 75.8476 87.3019 75.9779 87.4659 76.0683C87.63 76.1587 87.8141 76.2063 88.0014 76.2067C88.1887 76.2071 88.3731 76.1603 88.5375 76.0707C90.8394 75.7112 93.1911 75.838 95.441 76.4429C97.6909 77.0478 99.7891 78.1173 101.6 79.5826C103.458 75.7198 106.056 72.2591 109.246 69.3967C109.491 69.2287 109.663 68.9738 109.726 68.6839C109.739 68.5159 109.713 68.3471 109.648 68.1915C107.725 62.2287 106.61 56.0353 106.331 49.7764C101.899 53.0421 97.1036 56.9039 96.339 62.3598C91.5182 60.6103 86.3215 59.0941 81.1508 59.9235Z" fill="white"/>
<path opacity="0.3" d="M101.549 53.6384L104.14 51.4224L108.028 68.8266C108.028 68.8266 100.849 75.6561 101.549 79.5828L96.339 62.36C96.339 62.36 98.9308 55.8544 101.549 53.6384Z" fill="#329094"/>
<path d="M96.339 62.3598L101.6 79.5826C101.6 79.5826 104.192 68.3858 105.981 64.6795L100.045 49.7764C100.045 49.7764 95.7299 57.215 96.339 62.3598Z" fill="white"/>
<path d="M168.898 68.1398C169.311 67.8189 169.804 67.6172 170.323 67.5566C170.61 67.5707 170.893 67.623 171.166 67.7122L186.341 72.2349C182.194 77.8074 175.183 80.4511 170.284 85.3756C170.056 85.6332 169.784 85.8482 169.481 86.0106C169.117 86.0991 168.739 86.1137 168.37 86.0536C168 85.9935 167.647 85.8599 167.33 85.6607C164.764 84.4963 162.022 83.765 159.217 83.4965C158.09 83.3799 156.055 83.8464 156.029 82.6671C156.029 81.747 157.481 80.0753 157.973 79.2459C160.804 74.8257 164.525 71.0435 168.898 68.1398V68.1398Z" fill="white"/>
<path d="M169.74 111.514C171.675 115.632 174.198 119.448 177.231 122.841C176.187 123.731 174.955 124.374 173.628 124.72C169.803 126.128 166.306 128.302 163.351 131.109C162.055 128.698 156.301 120.741 157.507 118.292C158.077 117.151 170.025 112.123 169.74 111.514Z" fill="white"/>
<path d="M88.7708 134.905C92.6586 135.139 96.5464 135.515 100.434 136.059C100.788 136.075 101.129 136.192 101.419 136.396C101.657 136.642 101.827 136.945 101.911 137.277C103.644 142.367 106.307 147.091 109.765 151.208C105.877 153.593 94.6414 158.543 90.8961 153.8C89.4706 151.934 87.6304 134.841 88.7708 134.905Z" fill="white"/>
</g>
<defs>
<linearGradient id="paint0_linear" x1="89.341" y1="80.1139" x2="227.811" y2="66.8048" gradientUnits="userSpaceOnUse">
<stop offset="0.01"/>
<stop offset="0.13" stop-opacity="0.69"/>
<stop offset="0.25" stop-opacity="0.32"/>
<stop offset="1" stop-opacity="0"/>
</linearGradient>
<linearGradient id="paint1_linear" x1="4210.55" y1="6817.55" x2="-647.17" y2="6756.22" gradientUnits="userSpaceOnUse">
<stop offset="0.01"/>
<stop offset="0.13" stop-opacity="0.69"/>
<stop offset="0.25" stop-opacity="0.32"/>
<stop offset="1" stop-opacity="0"/>
</linearGradient>
<linearGradient id="paint2_linear" x1="144.69" y1="143.938" x2="155.692" y2="129.618" gradientUnits="userSpaceOnUse">
<stop offset="0.01"/>
<stop offset="0.08" stop-opacity="0.69"/>
<stop offset="0.21" stop-opacity="0.32"/>
<stop offset="1" stop-opacity="0"/>
</linearGradient>
<linearGradient id="paint3_linear" x1="6499.04" y1="2978.68" x2="5781.13" y2="8437.94" gradientUnits="userSpaceOnUse">
<stop offset="0.01"/>
<stop offset="0.08" stop-opacity="0.69"/>
<stop offset="0.21" stop-opacity="0.32"/>
<stop offset="1" stop-opacity="0"/>
</linearGradient>
<linearGradient id="paint4_linear" x1="4769.68" y1="4110.41" x2="4676.62" y2="5454.6" gradientUnits="userSpaceOnUse">
<stop offset="0.01"/>
<stop offset="0.08" stop-opacity="0.69"/>
<stop offset="0.21" stop-opacity="0.32"/>
<stop offset="1" stop-opacity="0"/>
</linearGradient>
<linearGradient id="paint5_linear" x1="4635.03" y1="3974.85" x2="2731.12" y2="2999.42" gradientUnits="userSpaceOnUse">
<stop offset="0.01"/>
<stop offset="0.13" stop-opacity="0.69"/>
<stop offset="0.25" stop-opacity="0.32"/>
<stop offset="1" stop-opacity="0"/>
</linearGradient>
<linearGradient id="paint6_linear" x1="1875.29" y1="404.559" x2="1875.27" y2="441.275" gradientUnits="userSpaceOnUse">
<stop offset="0.01"/>
<stop offset="0.13" stop-opacity="0.69"/>
<stop offset="0.25" stop-opacity="0.32"/>
<stop offset="1" stop-opacity="0"/>
</linearGradient>
<linearGradient id="paint7_linear" x1="1691.72" y1="384.562" x2="1691.29" y2="418.085" gradientUnits="userSpaceOnUse">
<stop offset="0.01"/>
<stop offset="0.13" stop-opacity="0.69"/>
<stop offset="0.25" stop-opacity="0.32"/>
<stop offset="1" stop-opacity="0"/>
</linearGradient>
<linearGradient id="paint8_linear" x1="1483.24" y1="359.792" x2="1483.03" y2="383.102" gradientUnits="userSpaceOnUse">
<stop offset="0.01"/>
<stop offset="0.13" stop-opacity="0.69"/>
<stop offset="0.25" stop-opacity="0.32"/>
<stop offset="1" stop-opacity="0"/>
</linearGradient>
<linearGradient id="paint9_linear" x1="1377.32" y1="3722.67" x2="1085.97" y2="3704.29" gradientUnits="userSpaceOnUse">
<stop offset="0.01"/>
<stop offset="0.08" stop-opacity="0.69"/>
<stop offset="0.21" stop-opacity="0.32"/>
<stop offset="1" stop-opacity="0"/>
</linearGradient>
<linearGradient id="paint10_linear" x1="517.134" y1="531.263" x2="518.684" y2="527.928" gradientUnits="userSpaceOnUse">
<stop offset="0.01"/>
<stop offset="0.08" stop-opacity="0.69"/>
<stop offset="0.21" stop-opacity="0.32"/>
<stop offset="1" stop-opacity="0"/>
</linearGradient>
<linearGradient id="paint11_linear" x1="6552.32" y1="4094.85" x2="6883.53" y2="3024.56" gradientUnits="userSpaceOnUse">
<stop offset="0.01"/>
<stop offset="0.08" stop-opacity="0.69"/>
<stop offset="0.21" stop-opacity="0.32"/>
<stop offset="1" stop-opacity="0"/>
</linearGradient>
<linearGradient id="paint12_linear" x1="3228.45" y1="2487.73" x2="2711.91" y2="962.115" gradientUnits="userSpaceOnUse">
<stop offset="0.01"/>
<stop offset="0.13" stop-opacity="0.69"/>
<stop offset="0.25" stop-opacity="0.32"/>
<stop offset="1" stop-opacity="0"/>
</linearGradient>
<clipPath id="clip0">
<rect width="248.882" height="200" fill="white"/>
</clipPath>
</defs>
</svg>
