<svg width="412" height="332" viewBox="0 0 412 332" fill="none" xmlns="http://www.w3.org/2000/svg">
<g clip-path="url(#clip0)">
<path opacity="0.18" d="M380.65 278.04C357.39 294.64 327.99 299.66 299.6 303.04C236.028 310.572 171.886 312.079 108.03 307.54C66.27 304.54 37.91 299.54 17.29 260.96C2.21 232.71 -3.22001 207.81 1.83 175.8C4.98 155.88 10.21 135.65 22.25 119.47C47.48 85.5599 95.51 77.4499 125.97 48.2099C135.41 39.1299 142.97 28.1499 153.14 19.8799C167.42 8.20988 185.36 3.04988 203.9 1.06988C205.467 0.889882 207.037 0.739883 208.61 0.619883C210.44 0.479883 212.27 0.359883 214.11 0.269883C215.68 0.189883 217.25 0.139883 218.82 0.0898828C222.82 -0.0234505 226.82 -0.0234505 230.82 0.0898828C255.53 0.539883 281.2 3.68988 301.98 17.0299C327.16 33.2099 341.35 61.7499 351.58 89.8599C361.81 117.97 369.71 147.62 387.07 172C394.44 182.35 403.51 191.75 408.26 203.52C419.01 230.02 403.92 261.45 380.65 278.04Z" fill="#DDDDDD"/>
<path opacity="0.18" d="M34.36 248.95C34.8864 242.77 36.6623 236.762 39.58 231.29C49.19 212.29 66.74 198.53 85.05 187.66C103.36 176.79 123.05 168.12 140.38 155.79C148.88 149.74 156.91 142.79 166.51 138.72C180.51 132.8 196.45 133.66 211.36 136.55C233.75 140.88 256.07 150.14 270.99 167.38C284.94 183.51 292.29 206.25 310.94 216.59C316.27 219.59 322.19 221.25 327.79 223.59C340.132 228.866 350.824 237.371 358.74 248.21C363.07 254.21 366.62 261.36 365.54 268.65C364.54 275.59 359.35 281.4 353.21 284.78C344.45 289.6 334.05 290.12 324.06 290.34C243.47 292.13 162.74 281.75 82.37 287.92C72.26 288.69 53.86 294.17 46.37 284.83C39.2 275.82 33.69 260.39 34.36 248.95Z" fill="#A9ACAC"/>
<path d="M283.37 162.88C287.755 162.88 291.31 158.841 291.31 153.86C291.31 148.878 287.755 144.84 283.37 144.84C278.985 144.84 275.43 148.878 275.43 153.86C275.43 158.841 278.985 162.88 283.37 162.88Z" fill="#329094"/>
<path d="M286.11 162.73C290.495 162.73 294.05 158.692 294.05 153.71C294.05 148.728 290.495 144.69 286.11 144.69C281.725 144.69 278.17 148.728 278.17 153.71C278.17 158.692 281.725 162.73 286.11 162.73Z" fill="#329094"/>
<path d="M286.11 162.73C290.495 162.73 294.05 158.692 294.05 153.71C294.05 148.728 290.495 144.69 286.11 144.69C281.725 144.69 278.17 148.728 278.17 153.71C278.17 158.692 281.725 162.73 286.11 162.73Z" fill="url(#paint0_linear)"/>
<path d="M115.42 184.46C115.42 184.46 92.29 195.63 91.77 199.3C91.25 202.97 94.39 293.03 94.39 293.03C94.39 293.03 101.89 302.77 124.89 302.77C148.46 302.77 155.95 296.19 155.57 292.9C154.28 281.5 160.38 199.99 159.86 196.15C159.34 192.31 138 184.51 138 184.51L115.42 184.46Z" fill="#329094"/>
<path d="M129.82 241.62C129.82 241.62 101.95 246.62 100.22 244.88C98.67 243.33 91.96 197.88 91.77 199.3C91.39 201.93 92.91 245.18 93.77 269.3C108.07 264.97 138 249.79 138 249.79C135.792 246.593 133.02 243.824 129.82 241.62V241.62Z" fill="url(#paint1_linear)"/>
<path d="M119.05 241.94C121.06 240.419 123.157 239.016 125.33 237.74C127.75 236.45 138.76 235.33 140.72 235.93C142.68 236.53 141.83 237.66 139.49 238.11C137.15 238.56 135.15 238.06 134.64 239.47C134.13 240.88 137.24 243.77 137.04 246.24C136.84 248.71 136.9 248.53 131.28 250.46C125.66 252.39 120.36 254.98 118.92 250.62C117.48 246.26 117.17 242.58 119.05 241.94Z" fill="#F7AD7E"/>
<path d="M115.5 170.47C115.5 170.47 115.33 178.55 115.42 184.47C115.5 188.87 117.01 197.33 126.42 197.33C135.83 197.33 136.89 186.55 136.72 184.47C136.6 182.96 137.33 179.88 136.72 175.07C136.07 169.93 116.02 166.89 115.5 170.47Z" fill="#F7AD7E"/>
<path d="M115.37 183.72C114.697 183.444 113.945 183.429 113.262 183.677C112.578 183.924 112.01 184.417 111.67 185.06C110.26 187.42 110.17 192.15 111.67 198.6C113.17 205.05 114.42 206.71 114.42 206.71C114.42 206.71 120.57 198.01 124.89 197.66C124.89 197.66 116.38 195.99 115.37 183.72Z" fill="#F3FCFF"/>
<path d="M136.76 183.72C137.433 183.444 138.185 183.429 138.868 183.677C139.552 183.924 140.12 184.417 140.46 185.06C141.88 187.42 141.96 192.15 140.46 198.6C138.96 205.05 137.71 206.71 137.71 206.71C137.71 206.71 131.56 198.01 127.24 197.66C127.24 197.66 135.76 195.99 136.76 183.72Z" fill="#F3FCFF"/>
<path d="M96.07 195.11C92.7752 197.352 89.9323 200.195 87.69 203.49C84.02 208.9 77.97 254.29 80.77 266.59C81.95 271.79 124.77 252.37 124.77 252.37C124.77 252.37 123.77 243.67 119.24 240.71C119.24 240.71 98.24 245.21 96.67 243.64C95.1 242.07 96.07 195.11 96.07 195.11Z" fill="#329094"/>
<path d="M144.02 141.96C144.191 143.139 144.285 144.329 144.3 145.52C144.36 149.39 143.68 153.59 145.6 157.15C146.03 157.95 146.6 158.68 146.93 159.51C147.122 159.918 147.222 160.364 147.222 160.815C147.222 161.266 147.122 161.712 146.93 162.12C146.41 163.05 145.27 163.45 144.54 164.23C143.775 165.272 143.355 166.528 143.34 167.82C143.07 170.26 142.99 172.63 142.89 175.05C142.901 176.218 142.67 177.376 142.21 178.45C140.62 181.65 136.33 180.64 133.61 179.79C130.39 178.79 114.73 174.4 113.61 164.69C112.22 152.57 104.78 137.22 119.45 132.1C124.27 130.41 129.84 128.7 135 129.62C139.16 130.36 141.8 133.27 143 137.23C143.452 138.78 143.793 140.361 144.02 141.96V141.96Z" fill="#F7AD7E"/>
<path d="M135.88 125.12C135.88 125.12 143.94 125.7 146.69 128.75C150.1 132.53 150.69 136.75 147.14 140.09C143.59 143.43 134.23 140.24 127.72 144.39C121.21 148.54 128.14 158.76 124.89 160.99C121.64 163.22 123.58 156.54 119.28 154.83C114.98 153.12 113.28 160.39 117.74 165.73C122.2 171.07 118.02 174.47 115.09 175.36C112.16 176.25 105.09 152.24 105.65 143.36C106.21 134.48 110.58 134.61 110.58 134.61C110.58 134.61 110.68 120.83 135.88 125.12Z" fill="#3F3D56"/>
<path d="M136.9 180.54C136.9 180.54 125.47 176.32 120.3 173.95C120.3 173.95 131.06 184.18 136.62 184.1L136.9 180.54Z" fill="#AD7862"/>
<path d="M159.86 196.15C159.86 196.15 173.03 254.43 173.86 261.93C174.69 269.43 165.08 273.18 160.78 271.93C151.25 269.24 152.78 252.93 152.78 252.93L159.86 196.15Z" fill="#329094"/>
<path d="M173.58 259.8L186.96 303L177.83 309.47C177.83 309.47 158.5 281.88 156.96 273.67C155.42 265.46 154.88 254.21 162.96 254.43" fill="#329094"/>
<path d="M190.7 313.48C189.98 311.59 188.97 309.76 188.42 307.82C188.08 306.62 188.14 305.41 187.31 304.4C184.65 301.17 179.92 303.19 178.74 306.62C178.091 308.9 178.264 311.335 179.23 313.5C180.09 315.68 181.37 317.67 182.4 319.78C183.542 321.846 184.112 324.18 184.05 326.54C183.844 327.714 183.707 328.9 183.64 330.09C183.623 330.474 183.731 330.853 183.95 331.17C184.57 331.93 185.8 331.49 186.58 330.9C191.76 327.02 192.88 319.21 190.7 313.48Z" fill="#F7AD7E"/>
<path d="M177.71 310.95L175.06 306.98L185.96 299.92L189 304.23L177.71 310.95Z" fill="#F3FCFF"/>
<path d="M121.16 238.21L126.28 252.96L121.93 255.36C121.93 255.36 115.19 241.77 114.87 241.1C114.55 240.43 121.16 238.21 121.16 238.21Z" fill="#F3FCFF"/>
<path d="M151.45 218.7L146.12 269.9L143.84 295.03L155.51 292.12L155.91 270.44L151.45 218.7Z" fill="url(#paint2_linear)"/>
<path d="M119.12 199.26C119.12 199.26 125.12 215.37 125.81 216.7C126.5 218.03 131.56 199.9 131.56 199.9C131.56 199.9 133.56 196.95 125.4 197.29C123.155 197.29 120.963 197.978 119.12 199.26Z" fill="#F3FCFF"/>
<path d="M155.5 292.11C155.5 292.11 138.07 296.86 129.78 296.56C121.49 296.26 94.31 290.8 94.31 290.8C94.31 290.8 91.31 302.47 92.88 303.65C94.45 304.83 102.59 304.09 114.1 304.53C125.61 304.97 132.63 310.25 141.82 310.05C151.01 309.85 156.52 297.37 156.52 297.37L155.5 292.11Z" fill="#F3FCFF"/>
<path d="M231.82 189.01C231.82 189.01 233.03 179.11 232.09 176.8C231.25 174.72 230.25 169.37 228.88 169.37C226.42 169.37 228.77 180.53 223 175.54C222.08 174.75 217.11 171.2 213.1 171.66C212.303 171.758 211.536 172.024 210.849 172.441C210.162 172.857 209.571 173.415 209.116 174.076C208.66 174.738 208.35 175.488 208.206 176.279C208.062 177.069 208.087 177.88 208.28 178.66C209.09 180.94 214.22 185.53 217.28 187.66C220.34 189.79 223.49 192.79 224.61 195.52" fill="#855033"/>
<path d="M286.58 126.68C286.58 126.68 280.02 132.4 280.07 140.68C280.12 148.96 279.63 171.28 279.29 178.42C278.95 185.56 280.19 195.68 282.93 197.25C285.67 198.82 302.6 201.65 312.63 199.72C322.66 197.79 324.05 191.33 324.05 183.72C324.05 176.11 324.72 147.66 324.72 142.29C324.72 136.92 323.48 127.1 313.92 123.68C308.15 121.64 293.88 121.03 286.58 126.68Z" fill="#1E090A"/>
<path d="M283.31 181.72C282.714 183.954 282.379 186.249 282.31 188.56C282.29 189.716 282.521 190.863 282.988 191.921C283.454 192.98 284.144 193.924 285.01 194.69C286.83 196.1 289.29 196.28 291.6 196.36C296.373 196.54 301.15 196.56 305.93 196.42C307.465 196.433 308.997 196.258 310.49 195.9C315.22 194.56 318.3 189.78 319.29 184.96C320.28 180.14 319.64 175.16 319.4 170.24C319.2 165.95 319.3 161.61 318.34 157.42C318.089 155.982 317.48 154.631 316.57 153.49C314.98 151.72 312.41 151.27 310.04 150.97C303.47 150.15 296.64 149.73 290.36 151.83C288.7 152.308 287.174 153.164 285.9 154.33C282.9 157.33 284.9 162.85 284.9 166.65C284.882 171.714 284.349 176.764 283.31 181.72V181.72Z" fill="url(#paint3_linear)"/>
<path d="M311.44 168.06L312.31 186.34C311.352 187.733 310.04 188.846 308.509 189.565C306.978 190.284 305.284 190.582 303.6 190.43C294.78 189.43 295.16 186.84 295.16 186.84C295.16 186.84 295.16 173.64 294.81 170.69" fill="#855033"/>
<path d="M309.34 174.02L311.34 170.33L294.81 172.21C294.94 173.33 295.01 181.21 295.06 184.05C299.94 185.47 305.58 178.77 309.34 174.02Z" fill="url(#paint4_linear)"/>
<path d="M323.86 189.84C323.86 189.84 321.48 189.95 311.97 188.2C303.04 186.57 299.72 187.38 293.27 188.61C281.5 190.85 280.16 191.61 278.4 193.11C274.15 196.79 266.93 295.47 266.93 295.47C266.93 295.47 259.7 307.32 297.09 311.13C310.93 312.55 324.29 302.96 324.29 302.96L323.86 189.84Z" fill="#329094"/>
<path d="M315.67 188.69C315.67 188.69 308.11 236.47 306.98 276.26C306.535 289.314 306.913 302.383 308.11 315.39L330.73 307.53L320.98 231.1L323.86 189.84L315.67 188.69Z" fill="#329094"/>
<path d="M289.48 189.56L283.82 317.11L263.33 307.53C263.33 307.53 273.69 226.83 273.4 222.53C273.11 218.23 278.4 193.12 278.4 193.12C281.694 190.935 285.529 189.702 289.48 189.56V189.56Z" fill="#329094"/>
<path d="M315.67 188.69C315.67 188.69 308.11 236.47 306.98 276.26C306.535 289.314 306.913 302.383 308.11 315.39L330.73 307.53L320.98 231.1L323.86 189.84L315.67 188.69Z" fill="url(#paint5_linear)"/>
<path d="M325.58 268.73L308.13 253.59C308.13 253.59 311.27 261.79 316.13 267.07C319.363 270.489 322.857 273.652 326.58 276.53L325.58 268.73Z" fill="url(#paint6_linear)"/>
<path d="M289.48 189.56L283.82 317.11L263.33 307.53C263.33 307.53 273.69 226.83 273.4 222.53C273.11 218.23 278.4 193.12 278.4 193.12C281.694 190.935 285.529 189.702 289.48 189.56Z" fill="url(#paint7_linear)"/>
<path d="M318.33 138.47C318.33 138.47 317.6 161.87 310.79 169.88C303.61 178.34 293.44 180.2 289.39 171.75C282.11 156.56 282.52 152.69 282.27 146.85C281.58 131.7 304.86 118.65 318.33 138.47Z" fill="#855033"/>
<path d="M298.94 239.52C298.94 239.52 289.87 233.68 286.74 228.52C283.61 223.36 282.93 214.43 285.03 211.81C287.13 209.19 289.64 208.95 291.03 210.72C292.42 212.49 292.03 224.03 294.7 224.93C297.37 225.83 294.38 218.02 296.51 218.54C298.64 219.06 300.3 221.45 300.8 226.1C301.3 230.75 306.96 232.29 306.96 232.29C306.96 232.29 303.46 241.21 298.94 239.52Z" fill="#855033"/>
<path d="M322.16 189.84C322.16 189.84 335.33 186.16 334.49 213.95C333.65 241.74 328.96 267.5 325.56 268.73C322.16 269.96 294.12 238.48 294.12 238.48C294.12 238.48 300.07 230.71 303.04 229.48L316.21 239.7C316.21 239.7 317.49 206.21 322.16 189.84Z" fill="#329094"/>
<path d="M315.58 184.41L315.72 188.69C315.74 189.021 315.669 189.351 315.514 189.644C315.358 189.937 315.125 190.181 314.84 190.35L303.37 196.8C303.154 196.918 302.911 196.98 302.665 196.98C302.419 196.98 302.176 196.918 301.96 196.8L290.48 191.07C290.191 190.926 289.946 190.707 289.77 190.436C289.594 190.166 289.494 189.853 289.48 189.53L289.37 187.4C289.331 186.963 289.457 186.528 289.724 186.18C289.99 185.831 290.378 185.596 290.81 185.52L313.72 182.66C313.961 182.636 314.204 182.663 314.434 182.741C314.663 182.818 314.873 182.945 315.049 183.111C315.226 183.276 315.364 183.478 315.456 183.703C315.548 183.927 315.59 184.168 315.58 184.41Z" fill="#329094"/>
<path d="M293.08 141.48C290.54 141.55 286.08 134.94 284.75 139.8C281.4 151.9 282.91 162.5 281.62 161.9C280.33 161.3 276.52 132.85 290.23 130.9C298.56 129.75 294.43 123.32 306.1 127.28C317.77 131.24 322.26 138.13 320.67 148.38C319.08 158.63 315.98 163.6 314.38 157.91C312.78 152.22 306.01 139.21 303.31 137.21C297.25 132.62 295.63 141.4 293.08 141.48Z" fill="#2F1010"/>
<path d="M315.63 153.33C315.63 153.33 316 149.81 319.47 151.33C322.94 152.85 319.68 159 318.33 160.67C316.98 162.34 314.38 161.83 314.38 161.83" fill="#F6C8C9"/>
<path d="M280.25 191.84C280.25 191.84 273.17 196.95 270.25 200.41C267.33 203.87 254.41 217.81 253.25 218.13C252.09 218.45 232.71 187.99 232.71 187.99C232.71 187.99 224.2 189.42 222.27 194.77C222.27 194.77 233.13 228.77 244.85 238.53C256.57 248.29 273.32 222.53 273.32 222.53" fill="#329094"/>
<path d="M289.99 189.63C289.99 189.63 290.99 206.45 300.81 205.16C310.63 203.87 316.19 188.76 316.19 188.76C316.19 188.76 305.97 204.29 301.08 202.57C296.19 200.85 289.99 189.63 289.99 189.63Z" fill="url(#paint8_linear)"/>
<path d="M301.25 138.67C301.55 140.05 302.19 141.73 303.6 141.83C303.854 141.812 304.109 141.846 304.35 141.93C304.613 142.11 304.802 142.381 304.88 142.69C306.57 147.18 310.09 150.69 313.51 154.04C313.851 148.258 312.982 142.468 310.96 137.04C310.355 135.071 309.253 133.29 307.76 131.87C305.881 130.504 303.633 129.737 301.31 129.67C297.272 129.307 293.202 129.704 289.31 130.84C287.418 131.258 285.684 132.205 284.31 133.57C283.108 135.086 282.409 136.938 282.31 138.87C282.1 141 282.25 143.15 282.25 145.3C282.25 147.45 281.55 149.55 281.55 151.55C284.76 152.07 289.94 148.78 292.55 147.07C295.952 144.841 298.903 141.992 301.25 138.67V138.67Z" fill="#301011"/>
<path d="M295.63 123.02L302.37 122.5C302.689 121.742 303.246 121.11 303.957 120.698C304.668 120.286 305.495 120.118 306.31 120.22C309.22 120.56 305.11 117.37 301.11 118.74C298.825 119.454 296.877 120.976 295.63 123.02Z" fill="#329094"/>
<path d="M295.63 123.02L302.37 122.5C302.689 121.742 303.246 121.11 303.957 120.698C304.668 120.286 305.495 120.118 306.31 120.22C309.22 120.56 305.11 117.37 301.11 118.74C298.825 119.454 296.877 120.976 295.63 123.02Z" fill="url(#paint9_linear)"/>
<path d="M320.13 164.67C324.515 164.67 328.07 160.631 328.07 155.65C328.07 150.668 324.515 146.63 320.13 146.63C315.745 146.63 312.19 150.668 312.19 155.65C312.19 160.631 315.745 164.67 320.13 164.67Z" fill="#329094"/>
<path d="M322.87 164.52C327.255 164.52 330.81 160.482 330.81 155.5C330.81 150.518 327.255 146.48 322.87 146.48C318.485 146.48 314.93 150.518 314.93 155.5C314.93 160.482 318.485 164.52 322.87 164.52Z" fill="#329094"/>
<path d="M322.87 164.52C327.255 164.52 330.81 160.482 330.81 155.5C330.81 150.518 327.255 146.48 322.87 146.48C318.485 146.48 314.93 150.518 314.93 155.5C314.93 160.482 318.485 164.52 322.87 164.52Z" fill="url(#paint10_linear)"/>
<path d="M295.63 123.02C295.63 123.02 300.08 116.39 305.79 119.94C311.5 123.49 318.01 147.58 318.01 147.58L322.87 146.47C322.87 146.47 319.77 125.27 311.43 120.58C303.09 115.89 297.11 119.02 295.63 123.02Z" fill="#329094"/>
<path d="M129.18 124.39L122.06 124.67C121.461 124.124 120.702 123.785 119.896 123.702C119.089 123.62 118.278 123.798 117.58 124.21C115 125.6 117.7 121.3 121.88 120.99C126.06 120.68 129.18 124.39 129.18 124.39Z" fill="#329094"/>
<path d="M129.18 124.39L122.06 124.67C121.461 124.124 120.702 123.785 119.896 123.702C119.089 123.62 118.278 123.798 117.58 124.21C115 125.6 117.7 121.3 121.88 120.99C126.06 120.68 129.18 124.39 129.18 124.39Z" fill="url(#paint11_linear)"/>
<path d="M120.257 167.696C124.325 166.057 126.216 161.24 124.482 156.937C122.748 152.634 118.045 150.474 113.978 152.114C109.91 153.753 108.019 158.57 109.753 162.873C111.487 167.176 116.19 169.335 120.257 167.696Z" fill="#329094"/>
<path d="M117.662 168.593C121.729 166.954 123.621 162.137 121.887 157.834C120.153 153.531 115.45 151.371 111.382 153.011C107.315 154.65 105.424 159.467 107.158 163.77C108.892 168.073 113.595 170.232 117.662 168.593Z" fill="#329094"/>
<path d="M117.662 168.593C121.729 166.954 123.621 162.137 121.887 157.834C120.153 153.531 115.45 151.371 111.382 153.011C107.315 154.65 105.424 159.467 107.158 163.77C108.892 168.073 113.595 170.232 117.662 168.593Z" fill="url(#paint12_linear)"/>
<path d="M129.18 124.39C129.18 124.39 122.05 118.54 117.99 123.73C113.93 128.92 116.26 152.21 116.26 152.21L111.38 153.07C111.38 153.07 106.88 133.61 112.98 126.45C119.08 119.29 125.33 119.05 129.18 124.39Z" fill="#329094"/>
<path d="M361.67 288.95H39.12V330.53H361.67V288.95Z" fill="#D1A67C"/>
<path d="M361.22 288.95H39.12V311.34H361.22V288.95Z" fill="url(#paint13_linear)"/>
<path d="M376.52 284.15H31.12V291.69H376.52V284.15Z" fill="#B88E60"/>
<path d="M164.257 167.228C164.306 171.69 167.963 175.268 172.425 175.219C176.888 175.17 180.465 171.513 180.416 167.05L180.256 152.471C180.207 148.009 176.55 144.432 172.087 144.481C167.625 144.53 164.048 148.187 164.097 152.649L164.257 167.228Z" fill="#329094"/>
<path d="M182.7 143.85C184.239 145.722 185.133 148.04 185.25 150.46L185.61 157.54C185.634 158.009 185.47 158.469 185.155 158.818C184.84 159.167 184.399 159.376 183.93 159.4C183.461 159.424 183.001 159.26 182.652 158.945C182.303 158.63 182.094 158.189 182.07 157.72L181.72 150.63C181.62 148.648 180.761 146.781 179.323 145.414C177.884 144.048 175.974 143.287 173.99 143.29H169.91C168.883 143.291 167.866 143.497 166.92 143.895C165.973 144.294 165.116 144.877 164.397 145.61C163.678 146.344 163.113 147.214 162.734 148.168C162.355 149.123 162.17 150.143 162.19 151.17L162.3 157.17C162.322 157.412 162.295 157.656 162.219 157.887C162.142 158.118 162.019 158.331 161.857 158.513C161.695 158.694 161.497 158.84 161.276 158.942C161.055 159.043 160.816 159.098 160.573 159.103C160.329 159.108 160.088 159.062 159.863 158.97C159.638 158.877 159.435 158.739 159.266 158.564C159.096 158.389 158.965 158.181 158.88 157.954C158.795 157.726 158.757 157.483 158.77 157.24L158.65 151.24C158.621 149.742 158.89 148.254 159.443 146.862C159.996 145.47 160.82 144.202 161.869 143.132C162.917 142.062 164.168 141.212 165.549 140.631C166.93 140.051 168.412 139.751 169.91 139.75H173.99C175.654 139.748 177.298 140.115 178.804 140.824C180.31 141.533 181.641 142.566 182.7 143.85V143.85Z" fill="#329094"/>
<path d="M208.58 0.620117V94.6201L185.83 102.26L175.26 132.87C175.099 133.333 174.797 133.735 174.398 134.02C173.998 134.305 173.521 134.458 173.03 134.46C172.768 134.462 172.507 134.418 172.26 134.33C171.67 134.123 171.186 133.692 170.913 133.131C170.639 132.569 170.599 131.922 170.8 131.33L182.13 98.5301L203.87 91.2301V1.07012C205.463 0.890117 207.033 0.740117 208.58 0.620117Z" fill="#329094"/>
<path d="M208.58 0.620117V94.6201L185.83 102.26L175.26 132.87C175.099 133.333 174.797 133.735 174.398 134.02C173.998 134.305 173.521 134.458 173.03 134.46C172.768 134.462 172.507 134.418 172.26 134.33C171.67 134.123 171.186 133.692 170.913 133.131C170.639 132.569 170.599 131.922 170.8 131.33L182.13 98.5301L203.87 91.2301V1.07012C205.463 0.890117 207.033 0.740117 208.58 0.620117Z" fill="url(#paint14_linear)"/>
<path d="M205.54 97.2498C207.799 97.2498 209.63 95.4187 209.63 93.1598C209.63 90.901 207.799 89.0698 205.54 89.0698C203.281 89.0698 201.45 90.901 201.45 93.1598C201.45 95.4187 203.281 97.2498 205.54 97.2498Z" fill="white"/>
<path d="M205.58 98.9102C204.443 98.9102 203.331 98.5729 202.385 97.9411C201.44 97.3093 200.703 96.4113 200.268 95.3606C199.833 94.3099 199.719 93.1538 199.941 92.0384C200.162 90.923 200.71 89.8984 201.514 89.0943C202.318 88.2901 203.343 87.7425 204.458 87.5206C205.574 87.2988 206.73 87.4126 207.78 87.8479C208.831 88.2831 209.729 89.02 210.361 89.9656C210.993 90.9112 211.33 92.0229 211.33 93.1602C211.327 94.6843 210.721 96.1453 209.643 97.2231C208.565 98.3009 207.104 98.9075 205.58 98.9102V98.9102ZM205.58 90.7302C205.099 90.7302 204.63 90.8727 204.23 91.1397C203.83 91.4067 203.519 91.7862 203.335 92.2302C203.151 92.6743 203.103 93.1629 203.197 93.6342C203.29 94.1056 203.522 94.5386 203.862 94.8784C204.202 95.2183 204.635 95.4497 205.106 95.5435C205.577 95.6372 206.066 95.5891 206.51 95.4052C206.954 95.2213 207.333 94.9098 207.6 94.5102C207.868 94.1106 208.01 93.6408 208.01 93.1602C208.01 92.5157 207.754 91.8976 207.298 91.4419C206.843 90.9862 206.224 90.7302 205.58 90.7302Z" fill="#329094"/>
<path d="M183.8 104.06C186.059 104.06 187.89 102.229 187.89 99.9699C187.89 97.711 186.059 95.8799 183.8 95.8799C181.541 95.8799 179.71 97.711 179.71 99.9699C179.71 102.229 181.541 104.06 183.8 104.06Z" fill="white"/>
<path d="M183.79 105.72C182.65 105.72 181.536 105.382 180.589 104.749C179.641 104.115 178.903 103.215 178.467 102.162C178.032 101.109 177.918 99.9504 178.141 98.8328C178.364 97.7152 178.914 96.6889 179.721 95.8837C180.527 95.0786 181.554 94.5308 182.672 94.3097C183.79 94.0885 184.949 94.204 186.001 94.6415C187.054 95.079 187.952 95.8189 188.584 96.7674C189.216 97.7159 189.552 98.8306 189.55 99.9702C189.547 101.496 188.939 102.959 187.859 104.037C186.779 105.115 185.316 105.72 183.79 105.72V105.72ZM183.79 97.5302C183.307 97.5282 182.834 97.6696 182.432 97.9365C182.029 98.2034 181.715 98.5838 181.529 99.0295C181.342 99.4752 181.293 99.9661 181.386 100.44C181.479 100.914 181.71 101.35 182.051 101.692C182.392 102.034 182.827 102.268 183.3 102.363C183.774 102.458 184.265 102.41 184.711 102.225C185.158 102.041 185.54 101.728 185.808 101.327C186.077 100.925 186.22 100.453 186.22 99.9702C186.221 99.6503 186.159 99.3332 186.038 99.0372C185.916 98.7412 185.738 98.4722 185.512 98.2455C185.286 98.0188 185.018 97.8389 184.722 97.7161C184.427 97.5934 184.11 97.5302 183.79 97.5302V97.5302Z" fill="#329094"/>
<path d="M172.611 142.177L172.621 142.177C173.643 142.164 174.46 141.326 174.448 140.304L174.349 132.495C174.337 131.473 173.498 130.655 172.476 130.668L172.466 130.668C171.445 130.681 170.627 131.52 170.64 132.541L170.738 140.351C170.751 141.372 171.589 142.19 172.611 142.177Z" fill="#329094"/>
<path d="M250.166 131.488L250.156 131.488C249.135 131.465 248.288 132.273 248.264 133.295L248.083 141.103C248.059 142.124 248.868 142.971 249.889 142.995L249.899 142.995C250.921 143.019 251.768 142.21 251.792 141.189L251.973 133.381C251.997 132.359 251.188 131.512 250.166 131.488Z" fill="#329094"/>
<path d="M258.31 153.514C258.405 149.053 254.866 145.359 250.405 145.263C245.944 145.167 242.249 148.706 242.153 153.167L241.84 167.744C241.745 172.206 245.284 175.9 249.745 175.996C254.207 176.092 257.901 172.552 257.997 168.091L258.31 153.514Z" fill="#329094"/>
<path d="M164.257 167.228C164.306 171.69 167.963 175.268 172.425 175.219C176.888 175.17 180.465 171.513 180.416 167.05L180.256 152.471C180.207 148.009 176.55 144.432 172.087 144.481C167.625 144.53 164.048 148.187 164.097 152.649L164.257 167.228Z" fill="#329094"/>
<path d="M164.257 167.228C164.306 171.69 167.963 175.268 172.425 175.219C176.888 175.17 180.465 171.513 180.416 167.05L180.256 152.471C180.207 148.009 176.55 144.432 172.087 144.481C167.625 144.53 164.048 148.187 164.097 152.649L164.257 167.228Z" fill="url(#paint15_linear)"/>
<path d="M258.31 153.514C258.405 149.053 254.866 145.359 250.405 145.263C245.944 145.167 242.249 148.706 242.153 153.167L241.84 167.744C241.745 172.206 245.284 175.9 249.745 175.996C254.207 176.092 257.901 172.552 257.997 168.091L258.31 153.514Z" fill="url(#paint16_linear)"/>
<path d="M239.79 144.54C238.226 146.392 237.303 148.7 237.16 151.12L236.73 158.2C236.721 158.656 236.888 159.099 237.198 159.434C237.507 159.77 237.934 159.974 238.39 160.002C238.845 160.03 239.294 159.882 239.643 159.587C239.991 159.292 240.212 158.874 240.26 158.42L240.69 151.33C240.81 149.35 241.687 147.492 243.139 146.141C244.591 144.79 246.507 144.048 248.49 144.07H252.57C253.601 144.08 254.62 144.296 255.566 144.706C256.512 145.117 257.366 145.712 258.078 146.458C258.79 147.203 259.346 148.084 259.712 149.048C260.078 150.012 260.247 151.039 260.21 152.07L260.04 158.07C260.016 158.312 260.042 158.556 260.117 158.787C260.192 159.018 260.313 159.231 260.473 159.413C260.634 159.595 260.83 159.743 261.05 159.846C261.27 159.949 261.509 160.005 261.751 160.012C261.994 160.019 262.236 159.976 262.461 159.886C262.686 159.795 262.891 159.659 263.061 159.486C263.232 159.314 263.365 159.108 263.453 158.881C263.54 158.655 263.58 158.413 263.57 158.17L263.75 152.17C263.793 150.672 263.536 149.18 262.995 147.782C262.454 146.384 261.639 145.108 260.599 144.029C259.559 142.95 258.314 142.089 256.937 141.496C255.56 140.904 254.079 140.593 252.58 140.58L248.5 140.53C246.842 140.513 245.201 140.863 243.695 141.557C242.188 142.25 240.855 143.269 239.79 144.54V144.54Z" fill="#329094"/>
<path d="M182.7 143.85C184.239 145.722 185.133 148.04 185.25 150.46L185.61 157.54C185.634 158.009 185.47 158.469 185.155 158.818C184.84 159.167 184.399 159.376 183.93 159.4C183.461 159.424 183.001 159.26 182.652 158.945C182.303 158.63 182.094 158.189 182.07 157.72L181.72 150.63C181.62 148.648 180.761 146.781 179.323 145.414C177.884 144.048 175.974 143.287 173.99 143.29H169.91C168.883 143.291 167.866 143.497 166.92 143.895C165.973 144.294 165.116 144.877 164.397 145.61C163.678 146.344 163.113 147.214 162.734 148.168C162.355 149.123 162.17 150.143 162.19 151.17L162.3 157.17C162.322 157.412 162.295 157.656 162.219 157.887C162.142 158.118 162.019 158.331 161.857 158.513C161.695 158.694 161.497 158.84 161.276 158.942C161.055 159.043 160.816 159.098 160.573 159.103C160.329 159.108 160.088 159.062 159.863 158.97C159.638 158.877 159.435 158.739 159.266 158.564C159.096 158.389 158.965 158.181 158.88 157.954C158.795 157.726 158.757 157.483 158.77 157.24L158.65 151.24C158.621 149.742 158.89 148.254 159.443 146.862C159.996 145.47 160.82 144.202 161.869 143.132C162.917 142.062 164.168 141.212 165.549 140.631C166.93 140.051 168.412 139.751 169.91 139.75H173.99C175.654 139.748 177.298 140.115 178.804 140.824C180.31 141.533 181.641 142.566 182.7 143.85V143.85Z" fill="#329094"/>
<path d="M239.79 144.54C238.226 146.392 237.303 148.7 237.16 151.12L236.73 158.2C236.721 158.656 236.888 159.099 237.198 159.434C237.507 159.77 237.934 159.974 238.39 160.002C238.845 160.03 239.294 159.882 239.643 159.587C239.991 159.292 240.212 158.874 240.26 158.42L240.69 151.33C240.81 149.35 241.687 147.492 243.139 146.141C244.591 144.79 246.507 144.048 248.49 144.07H252.57C253.601 144.08 254.62 144.296 255.566 144.706C256.512 145.117 257.366 145.712 258.078 146.458C258.79 147.203 259.346 148.084 259.712 149.048C260.078 150.012 260.247 151.039 260.21 152.07L260.04 158.07C260.016 158.312 260.042 158.556 260.117 158.787C260.192 159.018 260.313 159.231 260.473 159.413C260.634 159.595 260.83 159.743 261.05 159.846C261.27 159.949 261.509 160.005 261.751 160.012C261.994 160.019 262.236 159.976 262.461 159.886C262.686 159.795 262.891 159.659 263.061 159.486C263.232 159.314 263.365 159.108 263.453 158.881C263.54 158.655 263.58 158.413 263.57 158.17L263.75 152.17C263.793 150.672 263.536 149.18 262.995 147.782C262.454 146.384 261.639 145.108 260.599 144.029C259.559 142.95 258.314 142.089 256.937 141.496C255.56 140.904 254.079 140.593 252.58 140.58L248.5 140.53C246.842 140.513 245.201 140.863 243.695 141.557C242.188 142.25 240.855 143.269 239.79 144.54V144.54Z" fill="#329094"/>
<path d="M182.7 143.85C184.239 145.722 185.133 148.04 185.25 150.46L185.61 157.54C185.634 158.009 185.47 158.469 185.155 158.818C184.84 159.167 184.399 159.376 183.93 159.4C183.461 159.424 183.001 159.26 182.652 158.945C182.303 158.63 182.094 158.189 182.07 157.72L181.72 150.63C181.62 148.648 180.761 146.781 179.323 145.414C177.884 144.048 175.974 143.287 173.99 143.29H169.91C168.883 143.291 167.866 143.497 166.92 143.895C165.973 144.294 165.116 144.877 164.397 145.61C163.678 146.344 163.113 147.214 162.734 148.168C162.355 149.123 162.17 150.143 162.19 151.17L162.3 157.17C162.322 157.412 162.295 157.656 162.219 157.887C162.142 158.118 162.019 158.331 161.857 158.513C161.695 158.694 161.497 158.84 161.276 158.942C161.055 159.043 160.816 159.098 160.573 159.103C160.329 159.108 160.088 159.062 159.863 158.97C159.638 158.877 159.435 158.739 159.266 158.564C159.096 158.389 158.965 158.181 158.88 157.954C158.795 157.726 158.757 157.483 158.77 157.24L158.65 151.24C158.621 149.742 158.89 148.254 159.443 146.862C159.996 145.47 160.82 144.202 161.869 143.132C162.917 142.062 164.168 141.212 165.549 140.631C166.93 140.051 168.412 139.751 169.91 139.75H173.99C175.654 139.748 177.298 140.115 178.804 140.824C180.31 141.533 181.641 142.566 182.7 143.85V143.85Z" fill="url(#paint17_linear)"/>
<path d="M239.79 144.54C238.226 146.392 237.303 148.7 237.16 151.12L236.73 158.2C236.721 158.656 236.888 159.099 237.198 159.434C237.507 159.77 237.934 159.974 238.39 160.002C238.845 160.03 239.294 159.882 239.643 159.587C239.991 159.292 240.212 158.874 240.26 158.42L240.69 151.33C240.81 149.35 241.687 147.492 243.139 146.141C244.591 144.79 246.507 144.048 248.49 144.07H252.57C253.601 144.08 254.62 144.296 255.566 144.706C256.512 145.117 257.366 145.712 258.078 146.458C258.79 147.203 259.346 148.084 259.712 149.048C260.078 150.012 260.247 151.039 260.21 152.07L260.04 158.07C260.016 158.312 260.042 158.556 260.117 158.787C260.192 159.018 260.313 159.231 260.473 159.413C260.634 159.595 260.83 159.743 261.05 159.846C261.27 159.949 261.509 160.005 261.751 160.012C261.994 160.019 262.236 159.976 262.461 159.886C262.686 159.795 262.891 159.659 263.061 159.486C263.232 159.314 263.365 159.108 263.453 158.881C263.54 158.655 263.58 158.413 263.57 158.17L263.75 152.17C263.793 150.672 263.536 149.18 262.995 147.782C262.454 146.384 261.639 145.108 260.599 144.029C259.559 142.95 258.314 142.089 256.937 141.496C255.56 140.904 254.079 140.593 252.58 140.58L248.5 140.53C246.842 140.513 245.201 140.863 243.695 141.557C242.188 142.25 240.855 143.269 239.79 144.54V144.54Z" fill="url(#paint18_linear)"/>
<path d="M250.43 135.31C249.839 135.514 249.19 135.475 248.628 135.201C248.065 134.927 247.634 134.441 247.43 133.85L236.86 103.21L214.11 95.5598V0.269844C215.68 0.189844 217.25 0.139844 218.82 0.0898438V92.2098L240.58 99.5098L251.91 132.31C252.11 132.904 252.067 133.553 251.79 134.116C251.512 134.678 251.023 135.107 250.43 135.31V135.31Z" fill="#329094"/>
<path d="M250.43 135.31C249.839 135.514 249.19 135.475 248.628 135.201C248.065 134.927 247.634 134.441 247.43 133.85L236.86 103.21L214.11 95.5598V0.269844C215.68 0.189844 217.25 0.139844 218.82 0.0898438V92.2098L240.58 99.5098L251.91 132.31C252.11 132.904 252.067 133.553 251.79 134.116C251.512 134.678 251.023 135.107 250.43 135.31V135.31Z" fill="url(#paint19_linear)"/>
<path d="M217.19 98.22C219.449 98.22 221.28 96.3889 221.28 94.13C221.28 91.8712 219.449 90.04 217.19 90.04C214.931 90.04 213.1 91.8712 213.1 94.13C213.1 96.3889 214.931 98.22 217.19 98.22Z" fill="white"/>
<path d="M211.43 94.1299C211.428 92.9898 211.764 91.8748 212.397 90.926C213.029 89.9773 213.928 89.2374 214.981 88.8002C216.034 88.363 217.193 88.2481 218.311 88.4701C219.43 88.692 220.457 89.2408 221.263 90.0469C222.069 90.8531 222.618 91.8803 222.84 92.9986C223.062 94.1169 222.947 95.2758 222.51 96.3287C222.072 97.3816 221.333 98.2811 220.384 98.9133C219.435 99.5454 218.32 99.8818 217.18 99.8799C215.657 99.8746 214.197 99.2671 213.12 98.1899C212.043 97.1127 211.435 95.6532 211.43 94.1299ZM214.75 94.1299C214.75 94.6105 214.893 95.0803 215.16 95.4799C215.427 95.8795 215.806 96.191 216.25 96.3749C216.694 96.5588 217.183 96.6069 217.654 96.5132C218.125 96.4194 218.558 96.188 218.898 95.8481C219.238 95.5083 219.47 95.0753 219.563 94.6039C219.657 94.1325 219.609 93.644 219.425 93.1999C219.241 92.7559 218.93 92.3764 218.53 92.1094C218.13 91.8424 217.661 91.6999 217.18 91.6999C216.536 91.6999 215.917 91.9559 215.462 92.4116C215.006 92.8673 214.75 93.4854 214.75 94.1299Z" fill="#329094"/>
<path d="M238.93 105.03C241.189 105.03 243.02 103.199 243.02 100.94C243.02 98.6813 241.189 96.8501 238.93 96.8501C236.671 96.8501 234.84 98.6813 234.84 100.94C234.84 103.199 236.671 105.03 238.93 105.03Z" fill="white"/>
<path d="M233.17 100.94C233.168 99.8003 233.504 98.6857 234.136 97.7371C234.768 96.7886 235.666 96.0487 236.719 95.6113C237.771 95.1738 238.93 95.0583 240.048 95.2794C241.166 95.5005 242.193 96.0483 242.999 96.8535C243.806 97.6586 244.356 98.6849 244.579 99.8025C244.802 100.92 244.688 102.079 244.252 103.132C243.817 104.185 243.079 105.085 242.131 105.718C241.184 106.352 240.07 106.69 238.93 106.69C237.404 106.69 235.941 106.084 234.861 105.006C233.781 103.928 233.173 102.466 233.17 100.94V100.94ZM236.49 100.94C236.49 101.423 236.633 101.894 236.901 102.296C237.169 102.697 237.55 103.01 237.996 103.194C238.442 103.379 238.933 103.427 239.406 103.333C239.879 103.239 240.314 103.007 240.655 102.665C240.997 102.324 241.229 101.889 241.323 101.416C241.417 100.943 241.369 100.452 241.184 100.006C241 99.5603 240.687 99.1793 240.286 98.9111C239.884 98.643 239.413 98.4999 238.93 98.4999C238.609 98.4986 238.291 98.5608 237.995 98.683C237.698 98.8051 237.429 98.9848 237.202 99.2116C236.975 99.4385 236.795 99.708 236.673 100.005C236.551 100.301 236.489 100.619 236.49 100.94Z" fill="#329094"/>
</g>
<defs>
<linearGradient id="paint0_linear" x1="278.18" y1="153.71" x2="294.05" y2="153.71" gradientUnits="userSpaceOnUse">
<stop offset="0.01"/>
<stop offset="0.83" stop-opacity="0.07"/>
<stop offset="1" stop-opacity="0"/>
</linearGradient>
<linearGradient id="paint1_linear" x1="3008.9" y1="15626.7" x2="7150.95" y2="17625.7" gradientUnits="userSpaceOnUse">
<stop offset="0.01"/>
<stop offset="0.83" stop-opacity="0.07"/>
<stop offset="1" stop-opacity="0"/>
</linearGradient>
<linearGradient id="paint2_linear" x1="2273.59" y1="20150" x2="1841.81" y2="20139.9" gradientUnits="userSpaceOnUse">
<stop offset="0.01"/>
<stop offset="0.83" stop-opacity="0.07"/>
<stop offset="1" stop-opacity="0"/>
</linearGradient>
<linearGradient id="paint3_linear" x1="11610.5" y1="9925.78" x2="11688.5" y2="7751.94" gradientUnits="userSpaceOnUse">
<stop offset="0.01"/>
<stop offset="0.83" stop-opacity="0.07"/>
<stop offset="1" stop-opacity="0"/>
</linearGradient>
<linearGradient id="paint4_linear" x1="5306.21" y1="2343.22" x2="5328.71" y2="2888.18" gradientUnits="userSpaceOnUse">
<stop offset="0.01"/>
<stop offset="0.83" stop-opacity="0.07"/>
<stop offset="1" stop-opacity="0"/>
</linearGradient>
<linearGradient id="paint5_linear" x1="8744.2" y1="25633.9" x2="53.5079" y2="28925.5" gradientUnits="userSpaceOnUse">
<stop offset="0.01" stop-color="#525252"/>
<stop offset="0.83" stop-opacity="0.07"/>
<stop offset="1" stop-opacity="0"/>
</linearGradient>
<linearGradient id="paint6_linear" x1="6220.81" y1="6279.93" x2="6095.73" y2="6937.44" gradientUnits="userSpaceOnUse">
<stop offset="0.01"/>
<stop offset="0.83" stop-opacity="0.07"/>
<stop offset="1" stop-opacity="0"/>
</linearGradient>
<linearGradient id="paint7_linear" x1="8674.74" y1="23838.6" x2="-615.382" y2="27658.7" gradientUnits="userSpaceOnUse">
<stop offset="0.01" stop-color="#585858"/>
<stop offset="0.83" stop-opacity="0.07"/>
<stop offset="1" stop-opacity="0"/>
</linearGradient>
<linearGradient id="paint8_linear" x1="8287.53" y1="3373.35" x2="8237.18" y2="3873.71" gradientUnits="userSpaceOnUse">
<stop offset="0.01"/>
<stop offset="0.83" stop-opacity="0.07"/>
<stop offset="1" stop-opacity="0"/>
</linearGradient>
<linearGradient id="paint9_linear" x1="3759.55" y1="717.174" x2="3895.52" y2="717.174" gradientUnits="userSpaceOnUse">
<stop offset="0.01"/>
<stop offset="0.83" stop-opacity="0.07"/>
<stop offset="1" stop-opacity="0"/>
</linearGradient>
<linearGradient id="paint10_linear" x1="5316.18" y1="2951.7" x2="5568.19" y2="2951.7" gradientUnits="userSpaceOnUse">
<stop offset="0.01"/>
<stop offset="0.83" stop-opacity="0.07"/>
<stop offset="1" stop-opacity="0"/>
</linearGradient>
<linearGradient id="paint11_linear" x1="-47960.3" y1="16949.3" x2="-48096.3" y2="17004.6" gradientUnits="userSpaceOnUse">
<stop offset="0.01"/>
<stop offset="0.83" stop-opacity="0.07"/>
<stop offset="1" stop-opacity="0"/>
</linearGradient>
<linearGradient id="paint12_linear" x1="-65210.9" y1="12994.6" x2="-65444.7" y2="13088.8" gradientUnits="userSpaceOnUse">
<stop offset="0.01"/>
<stop offset="0.83" stop-opacity="0.07"/>
<stop offset="1" stop-opacity="0"/>
</linearGradient>
<linearGradient id="paint13_linear" x1="63041.9" y1="6061.54" x2="63053.7" y2="7644.72" gradientUnits="userSpaceOnUse">
<stop offset="0.01"/>
<stop offset="0.83" stop-opacity="0.07"/>
<stop offset="1" stop-opacity="0"/>
</linearGradient>
<linearGradient id="paint14_linear" x1="6294.44" y1="8215.72" x2="8698.66" y2="8550.3" gradientUnits="userSpaceOnUse">
<stop offset="0.01"/>
<stop offset="0.83" stop-opacity="0.07"/>
<stop offset="1" stop-opacity="0"/>
</linearGradient>
<linearGradient id="paint15_linear" x1="2981.35" y1="4465" x2="2910.11" y2="6054.41" gradientUnits="userSpaceOnUse">
<stop offset="0.01"/>
<stop offset="0.83" stop-opacity="0.07"/>
<stop offset="1" stop-opacity="0"/>
</linearGradient>
<linearGradient id="paint16_linear" x1="4312.53" y1="4533.71" x2="4259.35" y2="6358.24" gradientUnits="userSpaceOnUse">
<stop offset="0.01"/>
<stop offset="0.83" stop-opacity="0.07"/>
<stop offset="1" stop-opacity="0"/>
</linearGradient>
<linearGradient id="paint17_linear" x1="4832.39" y1="2700.44" x2="4835.69" y2="3387.31" gradientUnits="userSpaceOnUse">
<stop offset="0.01"/>
<stop offset="0.83" stop-opacity="0.07"/>
<stop offset="1" stop-opacity="0"/>
</linearGradient>
<linearGradient id="paint18_linear" x1="7031.88" y1="2669.32" x2="7035.11" y2="3350.3" gradientUnits="userSpaceOnUse">
<stop offset="0.01"/>
<stop offset="0.83" stop-opacity="0.07"/>
<stop offset="1" stop-opacity="0"/>
</linearGradient>
<linearGradient id="paint19_linear" x1="10520.8" y1="7486.24" x2="7264.8" y2="7996.38" gradientUnits="userSpaceOnUse">
<stop offset="0.01"/>
<stop offset="0.83" stop-opacity="0.07"/>
<stop offset="1" stop-opacity="0"/>
</linearGradient>
<clipPath id="clip0">
<rect width="411.82" height="331.58" fill="white"/>
</clipPath>
</defs>
</svg>
