<svg width="66" height="80" viewBox="0 0 66 80" fill="none" xmlns="http://www.w3.org/2000/svg">
<path d="M47.56 43.8206C50.579 38.8746 51.885 33.0293 51.9279 27.2697C51.9493 22.1524 49.9152 18.9622 45.7186 16.2001C41.7361 13.5879 36.3405 12.3889 31.63 13.0312C22.0164 14.3373 14.5653 22.2595 14.5439 32.0872C14.5224 43.0712 24.7356 51.1646 24.6071 62.2342C24.5001 62.4055 24.4573 62.5768 24.5001 62.7481C24.4787 62.7909 24.4573 62.8337 24.4573 62.898C24.3288 64.3968 24.4144 65.8741 24.7142 67.3301C24.029 68.0795 23.3867 68.8931 22.8086 69.771C22.6587 69.9851 22.6587 70.1992 22.7444 70.3705C22.8086 70.7559 23.1298 71.1199 23.6222 70.9914C24.2646 70.8201 24.8855 70.6274 25.5064 70.4347C25.6135 70.9272 25.7205 71.4196 25.849 71.8907C25.8704 71.9549 25.8918 71.9763 25.9132 72.0191C25.378 72.3189 24.8427 72.6401 24.3074 72.9612C24.2003 73.0255 24.1361 73.1111 24.0718 73.1968C23.9648 73.3038 23.9006 73.4537 23.9006 73.6464C23.9006 73.7749 23.9006 73.8819 23.9006 74.0104C23.9006 74.0532 23.922 74.096 23.9434 74.1389C23.9006 74.5243 24.1361 74.9311 24.6286 74.9525C25.378 74.9739 26.1273 74.9525 26.8767 74.9311C27.8402 78.2498 29.3604 80.4552 33.1288 79.9199C34.649 79.7058 36.9186 79.5345 37.8179 78.0143C38.76 76.4084 38.9527 74.46 39.1025 72.6401C40.8154 72.0192 42.5926 70.9914 42.1643 69.4284C41.7575 67.9724 40.4086 67.7369 39.0383 67.8226C39.0383 66.9661 39.0597 66.1311 39.0597 65.2746C40.5585 64.461 42.357 63.1335 40.6013 61.9345C40.1089 61.5919 39.5308 61.3778 38.9098 61.2493C38.9955 60.4357 38.9955 59.6221 38.9312 58.8084C38.9741 58.7442 39.0169 58.6586 39.0383 58.5515C40.1945 52.8347 44.5624 48.6809 47.56 43.8206ZM37.0899 76.023C36.7045 77.6289 35.7196 77.9501 34.3064 78.2926C33.0432 78.5924 30.7093 79.1063 29.7458 77.843C29.0821 76.9651 28.6539 75.9374 28.3327 74.8883C31.1376 74.6956 33.8996 74.2031 36.6403 73.4109C36.8544 73.3466 37.1755 73.261 37.5395 73.154C37.4753 74.1175 37.3254 75.081 37.0899 76.023ZM39.0383 69.3427C40.8368 69.6639 40.2373 70.7131 38.5673 71.2269C37.8179 71.5053 37.0685 71.7836 36.2977 72.0191C35.1629 72.3831 33.9853 72.6401 32.8076 72.897C30.6451 73.3681 28.4612 73.5179 26.2558 73.5394C30.2169 71.2698 34.4563 69.8566 39.0383 69.3427ZM26.8767 70.0279C30.5166 68.9145 34.0495 67.5656 37.5395 66.024H37.5609C37.5609 66.6878 37.5395 67.3729 37.5395 68.0367C37.1541 68.1009 36.7901 68.1651 36.4904 68.208C33.2359 68.7004 30.1098 69.8138 27.1979 71.3126C27.0909 70.9058 26.9838 70.4775 26.8767 70.0279ZM39.0169 63.7544C38.2889 64.1184 37.5395 64.461 36.8115 64.7822C35.013 65.5958 33.193 66.3238 31.3517 67.0089C29.2962 67.7797 27.2193 68.4435 25.121 69.043C28.1828 65.296 32.5079 63.0478 37.4111 62.6839C39.2952 62.2128 40.1517 63.2405 39.0169 63.7544ZM30.2811 45.8761C30.1526 43.7135 29.4889 41.7223 28.504 39.8167C27.9687 38.7889 27.3049 37.8254 26.7268 36.8191C25.2281 34.3354 25.9989 32.494 29.0393 31.2736C29.1891 31.4449 29.339 31.5948 29.4675 31.7232C29.1035 33.3077 29.3818 34.9777 30.6879 36.4765C31.0519 36.9047 32.2081 36.8619 32.5935 36.4551C33.5784 35.3631 33.6427 34.6994 33.1931 33.2434C32.8505 32.1515 32.1653 31.295 31.266 30.7169C31.994 29.1325 33.6855 28.169 35.2485 27.6337C39.1882 26.2634 40.43 30.4386 40.0018 33.3505C39.5522 36.3695 37.9035 39.1743 36.7259 41.9578C34.5848 47.0108 33.7069 52.4493 33.7283 57.8877C32.1867 58.1019 30.7093 58.4873 29.2962 59.0654C30.538 54.8473 30.538 50.2011 30.2811 45.8761ZM37.4539 59.1296C37.4967 59.7933 37.4967 60.4785 37.4539 61.1422C35.2913 61.1208 32.9147 61.8916 31.2874 62.6196C29.2748 63.5189 27.5191 64.6537 25.9775 66.0668C25.849 65.0391 25.8276 64.0328 25.9132 62.9836C29.0607 59.9646 33.1716 59.0225 37.4539 59.1296ZM37.7322 57.695C36.8758 57.6736 36.0407 57.695 35.1843 57.7379C35.1843 50.7364 37.1113 44.7199 39.8733 38.3607C41.0938 35.5344 42.9994 30.3529 40.4729 27.5695C37.2826 24.0794 32.0154 26.4775 30.067 30.1388C28.8894 29.732 27.5833 29.7534 26.4271 30.2459C22.6801 31.8945 25.3137 37.3972 26.6198 39.5383C29.9814 45.0624 29.6388 53.9695 27.4976 59.9218V59.9432C27.0052 60.243 26.5128 60.5641 26.0203 60.9281C25.6135 53.5413 21.1599 47.2892 18.1838 40.6945C13.4947 30.3315 17.4986 18.5982 28.8252 15.0225C33.8568 13.4381 39.4451 14.53 44.0271 16.8853C46.939 18.384 49.23 20.4824 50.1293 23.694C50.9215 26.5631 50.4505 30.1816 49.9794 33.0507C49.1444 38.1252 46.7678 42.643 43.7916 46.7539C41.2865 50.2439 38.7385 53.4984 37.7322 57.695Z" fill="black"/>
<path d="M53.8548 57.9095C52.0777 56.6462 50.2792 55.383 48.502 54.1197C47.7312 53.5844 47.0032 54.8477 47.774 55.383C49.5512 56.6462 51.3497 57.9095 53.1269 59.1728C53.8977 59.708 54.6256 58.4448 53.8548 57.9095Z" fill="black"/>
<path d="M63.126 42.6862C61.5416 41.3158 59.8929 40.0098 58.2015 38.7465C57.4521 38.1898 56.7241 39.4531 57.4735 40.0098C59.0579 41.1874 60.5995 42.4292 62.0983 43.7139C62.8049 44.3348 63.8326 43.3071 63.126 42.6862Z" fill="black"/>
<path d="M65.053 26.0494C63.5114 25.8781 61.9911 25.9852 60.471 26.3492C59.5503 26.5633 59.9357 27.955 60.8564 27.7623C62.2481 27.4411 63.6398 27.3769 65.053 27.5268C65.9736 27.591 65.9736 26.1351 65.053 26.0494Z" fill="black"/>
<path d="M53.0414 9.56267C51.7353 10.3549 50.5148 11.297 49.4015 12.3675C48.7377 13.0313 49.7655 14.059 50.4292 13.3953C51.457 12.4104 52.5489 11.5539 53.7694 10.8045C54.583 10.3335 53.8336 9.07021 53.0414 9.56267Z" fill="black"/>
<path d="M36.5121 0.912631C36.6619 -0.00805175 35.2488 -0.393451 35.0989 0.527231C34.7135 2.92529 34.7349 5.25911 35.1632 7.65717C35.3344 8.57785 36.7262 8.19245 36.5763 7.27177C36.1909 5.15206 36.1695 3.03234 36.5121 0.912631Z" fill="black"/>
<path d="M17.2417 12.1749C16.1497 10.7189 15.0578 9.26298 13.9872 7.7856C13.4305 7.03621 12.1672 7.7642 12.7239 8.51359C13.8159 9.96955 14.9079 11.4255 15.9784 12.9029C16.5351 13.6523 17.7984 12.9457 17.2417 12.1749Z" fill="black"/>
<path d="M8.24908 24.8074C5.87243 24.3792 3.51718 23.9724 1.14054 23.5442C0.219854 23.3729 -0.165546 24.786 0.755137 24.9573C3.13178 25.3855 5.48702 25.7923 7.86366 26.2206C8.78435 26.3704 9.16976 24.9787 8.24908 24.8074Z" fill="black"/>
<path d="M9.16991 39.4316C7.47842 40.2238 5.76553 40.9946 4.07404 41.7869C3.21759 42.1723 3.96699 43.4355 4.80203 43.0501L9.8979 40.6949C10.7543 40.2881 10.0049 39.0462 9.16991 39.4316Z" fill="black"/>
<path d="M13.4735 52.0856C12.0818 53.1347 10.7971 54.3123 9.64094 55.6184C9.02001 56.325 10.0477 57.3527 10.6687 56.6461C11.7392 55.4257 12.9168 54.3123 14.2015 53.3274C14.9509 52.7707 14.2229 51.5075 13.4735 52.0856Z" fill="black"/>
</svg>
