<svg width="129" height="83" viewBox="0 0 129 83" fill="none" xmlns="http://www.w3.org/2000/svg">
<path d="M123.756 2.37076C95.3904 1.87598 32.4985 1.18327 7.85519 2.37076C5.71122 10.2563 1.51952 30.0614 1.90443 46.1972C2.28935 62.333 4.31014 74.8676 5.27243 79.1179C8.5602 79.8134 19.466 81.2972 36.787 81.6681C54.1079 82.039 101.983 80.1225 123.756 79.1179C124.757 74.4812 126.808 61.4056 127 46.1972C127.193 30.9888 124.918 10.6427 123.756 2.37076Z" stroke="black" stroke-width="2"/>
<path d="M6.54565 10.47C29.9431 30.5875 49.4592 45.4569 56.2926 50.3769C57.6593 52.7458 61.978 56.0623 68.3194 50.3769C74.6607 44.6916 108.5 21.4034 124.626 10.47" stroke="black" stroke-width="2"/>
<path d="M5.72534 78.5301L48.3656 44.6365" stroke="black" stroke-width="2"/>
<path d="M78.1599 42.7234L123.26 78.5302" stroke="black" stroke-width="2"/>
</svg>
