<svg width="414" height="343" viewBox="0 0 414 343" fill="none" xmlns="http://www.w3.org/2000/svg">
<g clip-path="url(#clip0)">
<path opacity="0.18" d="M412.43 265.71C409.31 281.17 399.65 294.6 388.27 305.5C368.032 324.766 342.311 337.272 314.66 341.29C300.23 343.34 285.58 343.03 271.02 342.69C208.02 341.2 143.08 343.05 80.34 336.56C33.63 331.73 3.07 282.32 0.28 238.56C0.18 236.99 0.11 235.43 0.0699995 233.87C-1.16 193.8 14.53 154.81 33.6 119.38C40.7869 105.92 48.7642 92.8972 57.49 80.3799C79.44 49.2399 106.95 22.3799 142.2 9.29987C179.2 -4.44013 220.48 -1.33013 258.65 8.59987C272.2 12.1199 285.85 16.5999 296.92 25.2099C321.53 44.2799 327.81 77.9899 339.86 106.71C341.96 111.71 344.28 116.64 346.76 121.46C361.14 149.53 380.97 174.76 396.62 202.27C402.27 212.2 407.44 222.89 410.55 233.89C413.5 244.3 414.58 255.04 412.43 265.71Z" fill="#D9D9D9"/>
<path d="M172.7 6.91016V59.6302H121.32V19.0402C128.017 15.2102 135.017 11.9359 142.25 9.25016C144.51 8.41016 146.8 7.63016 149.1 6.91016H172.7Z" fill="url(#paint0_linear)"/>
<path d="M115.84 67.0898V119.8H64.47V70.7998C65.4233 69.5398 66.4 68.2898 67.4 67.0498L115.84 67.0898Z" fill="url(#paint1_linear)"/>
<path d="M172.69 67.0898H121.32V119.8H172.69V67.0898Z" fill="url(#paint2_linear)"/>
<path d="M115.84 127.27H64.47V179.98H115.84V127.27Z" fill="url(#paint3_linear)"/>
<path d="M172.69 127.27H121.32V179.98H172.69V127.27Z" fill="url(#paint4_linear)"/>
<path d="M270.45 11.9602V59.6302H219.08V6.91016H252.08C254.28 7.43016 256.477 7.97682 258.67 8.55016C262.6 9.58016 266.56 10.6802 270.45 11.9602Z" fill="url(#paint5_linear)"/>
<path d="M321.94 59.6301H275.94V13.8701C283.466 16.5598 290.545 20.3656 296.94 25.1601C308.46 34.1001 315.97 46.2701 321.94 59.6301Z" fill="url(#paint6_linear)"/>
<path d="M270.45 67.0898H219.08V119.8H270.45V67.0898Z" fill="url(#paint7_linear)"/>
<path d="M327.31 72.8698V119.8H275.94V67.0898H325.07C325.84 69.0398 326.58 70.9298 327.31 72.8698Z" fill="url(#paint8_linear)"/>
<path d="M270.45 127.27H219.08V179.98H270.45V127.27Z" fill="url(#paint9_linear)"/>
<path d="M327.31 127.27H275.94V179.98H327.31V127.27Z" fill="url(#paint10_linear)"/>
<path opacity="0.41" d="M412.43 265.71C409.31 281.17 399.65 294.6 388.27 305.5C368.032 324.766 342.311 337.272 314.66 341.29C300.23 343.34 285.58 343.03 271.02 342.69C208.02 341.2 143.08 343.05 80.34 336.56C33.63 331.73 3.07 282.32 0.28 238.56C0.18 236.99 0.11 235.43 0.0699997 233.87H410.55C413.5 244.3 414.58 255.04 412.43 265.71Z" fill="#9F9F9F"/>
<path d="M336.45 246.81H67.79V338.08H336.45V246.81Z" fill="#329094"/>
<path opacity="0.52" d="M336.45 246.81H67.79V338.08H336.45V246.81Z" fill="url(#paint11_linear)"/>
<path opacity="0.46" d="M336.45 247.9H67.79V265.26H336.45V247.9Z" fill="url(#paint12_linear)"/>
<path d="M191 92.6201H211.49C218.482 92.6307 225.185 95.4138 230.128 100.359C235.072 105.304 237.852 112.008 237.86 119V171.64H164.55V119C164.554 115.531 165.241 112.097 166.573 108.893C167.904 105.69 169.854 102.78 172.31 100.331C174.766 97.881 177.681 95.9391 180.888 94.6161C184.095 93.2931 187.531 92.6149 191 92.6201V92.6201Z" fill="#3F3D56"/>
<path d="M191 92.6201H211.49C218.482 92.6307 225.185 95.4138 230.128 100.359C235.072 105.304 237.852 112.008 237.86 119V171.64H164.55V119C164.554 115.531 165.241 112.097 166.573 108.893C167.904 105.69 169.854 102.78 172.31 100.331C174.766 97.881 177.681 95.9391 180.888 94.6161C184.095 93.2931 187.531 92.6149 191 92.6201V92.6201Z" fill="url(#paint13_linear)"/>
<path d="M187.99 147.23L160.89 156.23C158.731 157.926 157.257 160.344 156.74 163.04C155.9 167.53 161.39 185.04 162.22 193.97C163.05 202.9 164.05 214.75 164.05 214.75L169.25 237.84H230.43L234.09 194.61C234.09 194.61 243.09 164.02 243.09 160.7C243.042 158.529 242.591 156.386 241.76 154.38L213.41 145.98L187.99 147.23Z" fill="#329094"/>
<path d="M187.99 147.23L160.89 156.23C158.731 157.926 157.257 160.344 156.74 163.04C155.9 167.53 161.39 185.04 162.22 193.97C163.05 202.9 164.05 214.75 164.05 214.75L169.25 237.84H230.43L234.09 194.61C234.09 194.61 243.09 164.02 243.09 160.7C243.042 158.529 242.591 156.386 241.76 154.38L213.41 145.98L187.99 147.23Z" fill="url(#paint14_linear)"/>
<path d="M190.23 146.56L187.99 147.23L190.65 215.89L211.93 216.06L213.09 146.94L190.23 146.56Z" fill="white"/>
<path d="M196.47 158.12L199.13 161.44C199.112 162.826 198.887 164.201 198.46 165.52C197.8 167.35 192.98 207.41 192.98 207.41L200.46 216.89L208.94 205.09L203.45 161.61L205.53 156.96L202.62 153.8L199.71 153.46L196.47 158.12Z" fill="#62021D"/>
<path d="M342.77 241.82H59.48L73.94 205.91H319.33L342.77 241.82Z" fill="#329094"/>
<path d="M342.77 241.82H59.48L73.94 205.91H319.33L342.77 241.82Z" fill="url(#paint15_linear)"/>
<path d="M276.19 210.36L273.9 214.89C273.862 214.962 273.843 215.043 273.846 215.124C273.848 215.205 273.871 215.285 273.914 215.354C273.956 215.424 274.016 215.481 274.087 215.521C274.158 215.56 274.239 215.581 274.32 215.58C274.407 215.58 274.493 215.556 274.567 215.51C274.641 215.464 274.701 215.398 274.74 215.32L277.07 210.81C277.1 210.752 277.117 210.689 277.121 210.623C277.125 210.558 277.116 210.493 277.093 210.432C277.07 210.371 277.035 210.315 276.99 210.268C276.945 210.222 276.89 210.185 276.83 210.16V210.16C276.775 210.129 276.715 210.11 276.652 210.103C276.59 210.097 276.527 210.103 276.467 210.122C276.407 210.14 276.351 210.171 276.304 210.212C276.256 210.253 276.217 210.303 276.19 210.36V210.36Z" fill="#329094"/>
<path d="M273.87 212.69L267.02 226.25C266.922 226.463 266.878 226.697 266.894 226.932C266.909 227.166 266.982 227.393 267.108 227.591C267.233 227.79 267.406 227.954 267.61 228.069C267.815 228.184 268.045 228.246 268.28 228.25V228.25C268.54 228.248 268.795 228.176 269.017 228.04C269.239 227.904 269.42 227.711 269.54 227.48L276.54 213.97C276.628 213.797 276.679 213.608 276.691 213.414C276.703 213.221 276.674 213.027 276.608 212.845C276.541 212.663 276.438 212.497 276.304 212.356C276.17 212.216 276.009 212.105 275.83 212.03L275.71 211.97C275.37 211.822 274.986 211.815 274.641 211.95C274.296 212.085 274.019 212.351 273.87 212.69V212.69Z" fill="#329094"/>
<path d="M273.87 212.69L267.02 226.25C266.922 226.463 266.878 226.697 266.894 226.932C266.909 227.166 266.982 227.393 267.108 227.591C267.233 227.79 267.406 227.954 267.61 228.069C267.815 228.184 268.045 228.246 268.28 228.25V228.25C268.54 228.248 268.795 228.176 269.017 228.04C269.239 227.904 269.42 227.711 269.54 227.48L276.54 213.97C276.628 213.797 276.679 213.608 276.691 213.414C276.703 213.221 276.674 213.027 276.608 212.845C276.541 212.663 276.438 212.497 276.304 212.356C276.17 212.216 276.009 212.105 275.83 212.03L275.71 211.97C275.37 211.822 274.986 211.815 274.641 211.95C274.296 212.085 274.019 212.351 273.87 212.69V212.69Z" fill="url(#paint16_linear)"/>
<path d="M211.31 202.78C209.544 202.334 207.715 202.185 205.9 202.34C204.204 202.297 202.552 202.881 201.26 203.98C199.47 205.83 199.98 208.98 201.52 211.07C203.06 213.16 205.34 214.48 207.3 216.15C208.063 216.923 208.949 217.564 209.92 218.05C210.695 218.322 211.509 218.471 212.33 218.49C214.246 218.702 216.182 218.638 218.08 218.3C220 217.944 221.712 216.872 222.87 215.3C224.46 212.96 224.49 206.93 221.58 206.07C219.84 205.56 218.14 205.65 216.36 204.87C214.726 204.061 213.038 203.363 211.31 202.78V202.78Z" fill="#FFDAD2"/>
<path d="M194.82 203.25C195.628 202.886 196.483 202.637 197.36 202.51C198.345 202.4 199.342 202.54 200.259 202.915C201.177 203.291 201.985 203.891 202.61 204.66C203.212 205.446 203.592 206.381 203.708 207.364C203.824 208.348 203.673 209.345 203.27 210.25C202.498 211.502 201.607 212.678 200.61 213.76C199.56 215.17 198.91 216.86 197.69 218.11C194.82 221.05 189.31 221.11 185.5 220.62C184.598 220.546 183.724 220.273 182.94 219.82C182.157 219.366 181.484 218.745 180.97 218C179.42 215.41 180.53 211.21 182.42 209.07C183.59 207.75 185.42 207.42 186.98 206.72L193.92 203.64L194.82 203.25Z" fill="#FFDAD2"/>
<path d="M193.64 138.34C193.64 138.34 194.14 144.07 190.03 145.69C185.92 147.31 197.51 162.03 210.48 149.31C210.812 149.349 211.148 149.316 211.466 149.214C211.784 149.112 212.076 148.943 212.324 148.718C212.571 148.494 212.767 148.219 212.899 147.912C213.032 147.606 213.097 147.274 213.09 146.94C213.22 144.32 207.23 146.19 207.48 137.46C207.73 128.73 194.77 133.6 193.64 138.34Z" fill="#FFDAD2"/>
<path d="M196.73 146.18C198.08 148.05 200.54 149.39 202.73 148.59C204.088 147.928 205.224 146.886 206 145.59C207.24 143.89 208.55 142 208.45 139.9C208.461 139.61 208.408 139.321 208.296 139.053C208.183 138.786 208.014 138.546 207.8 138.35C207.446 138.109 207.036 137.964 206.61 137.93C203.197 137.415 199.712 137.685 196.42 138.72C194.55 139.3 194 139.51 194.62 141.43C195.073 143.113 195.784 144.716 196.73 146.18V146.18Z" fill="url(#paint17_linear)"/>
<path d="M186.41 114.65C186.41 114.65 186.16 130.85 191.65 137.84C197.14 144.83 204.99 146.84 211.1 137.84C213.94 133.66 215.59 118.01 214.47 115.64C213.35 113.27 197.88 101.55 191.4 107.29C184.92 113.03 186.41 114.65 186.41 114.65Z" fill="#FFDAD2"/>
<path d="M186.45 103.12C185.282 103.976 184.267 105.025 183.45 106.22C182.636 107.434 182.281 108.898 182.45 110.35C182.812 111.76 183.381 113.108 184.14 114.35C185.64 117.45 185.95 120.98 187.06 124.23C187.473 121.564 187.807 118.857 188.06 116.11C189.417 116.684 190.877 116.973 192.35 116.96C199.47 117.34 206.61 117.11 213.73 116.88C213.814 118.782 213.656 120.688 213.26 122.55C213.025 123.849 213.218 125.19 213.81 126.37C215.46 124.83 214.19 121.77 215.9 120.29C216.297 120.03 216.66 119.721 216.98 119.37C217.52 118.61 217.17 117.52 217.53 116.66C217.903 116.007 218.432 115.457 219.07 115.06C220.93 113.56 222.07 110.86 221.07 108.7C220.334 107.437 219.265 106.399 217.98 105.7L215.26 103.89C214.32 103.27 212.83 102.42 211.82 101.89C210.52 101.23 209.5 100.13 208.27 99.3502C206.118 98.1959 203.712 97.5977 201.27 97.6102C196.96 97.3702 192.41 97.6102 188.72 99.9002C188.12 100.227 187.603 100.687 187.209 101.245C186.816 101.804 186.556 102.445 186.45 103.12V103.12Z" fill="#3F3D56"/>
<path d="M203.59 132.11C203.875 132.065 204.165 132.065 204.45 132.11C205.39 132.34 205.84 133.38 206.15 134.29C206.06 134.02 201.89 134.44 201.45 134.47C199.83 134.58 198.19 134.9 196.58 134.92C195.92 131.44 201.67 132.21 203.59 132.11Z" fill="#3F3D56"/>
<path d="M186.45 103.12C185.282 103.976 184.267 105.025 183.45 106.22C182.636 107.434 182.281 108.898 182.45 110.35C182.812 111.76 183.381 113.108 184.14 114.35C185.64 117.45 185.95 120.98 187.06 124.23C187.473 121.564 187.807 118.857 188.06 116.11C189.417 116.684 190.877 116.973 192.35 116.96C199.47 117.34 206.61 117.11 213.73 116.88C213.814 118.782 213.656 120.688 213.26 122.55C213.025 123.849 213.218 125.19 213.81 126.37C215.46 124.83 214.19 121.77 215.9 120.29C216.297 120.03 216.66 119.721 216.98 119.37C217.52 118.61 217.17 117.52 217.53 116.66C217.903 116.007 218.432 115.457 219.07 115.06C220.93 113.56 222.07 110.86 221.07 108.7C220.334 107.437 219.265 106.399 217.98 105.7L215.26 103.89C214.32 103.27 212.83 102.42 211.82 101.89C210.52 101.23 209.5 100.13 208.27 99.3502C206.118 98.1959 203.712 97.5977 201.27 97.6102C196.96 97.3702 192.41 97.6102 188.72 99.9002C188.12 100.227 187.603 100.687 187.209 101.245C186.816 101.804 186.556 102.445 186.45 103.12V103.12Z" fill="url(#paint18_linear)"/>
<path d="M203.59 132.11C203.875 132.065 204.165 132.065 204.45 132.11C205.39 132.34 205.84 133.38 206.15 134.29C206.06 134.02 201.89 134.44 201.45 134.47C199.83 134.58 198.19 134.9 196.58 134.92C195.92 131.44 201.67 132.21 203.59 132.11Z" fill="url(#paint19_linear)"/>
<path d="M192.65 142.95C192.65 142.95 199.75 153.67 201.37 154.05L193.64 161.53C193.64 161.53 188.28 149.53 189.15 146.19L192.65 142.95Z" fill="white"/>
<path d="M208.83 143.56C207.94 146.41 205.22 153.98 201.37 154.05L208.11 162.05C208.11 162.05 213.47 154.44 213.34 146L210.01 143.23C209.917 143.154 209.807 143.102 209.689 143.077C209.572 143.053 209.45 143.057 209.335 143.089C209.219 143.122 209.113 143.181 209.025 143.263C208.937 143.345 208.87 143.447 208.83 143.56Z" fill="white"/>
<path d="M158.11 159.41C158.11 159.41 138.75 201.21 139.25 204.95C139.75 208.69 138.25 210.44 139.5 212.43C140.75 214.42 177.9 221.66 177.9 221.66L181.39 205.95L163.69 201.71L159.69 200.55C167.1 189.99 169.78 174.22 165.55 162.03C163.72 156.65 160.25 157.56 158.11 159.41Z" fill="#329094"/>
<path d="M158.11 159.41C158.11 159.41 138.75 201.21 139.25 204.95C139.75 208.69 138.25 210.44 139.5 212.43C140.75 214.42 177.9 221.66 177.9 221.66L181.39 205.95L163.69 201.71L159.69 200.55C167.1 189.99 169.78 174.22 165.55 162.03C163.72 156.65 160.25 157.56 158.11 159.41Z" fill="url(#paint20_linear)"/>
<path d="M242.43 155.04C242.43 155.04 267.11 199.18 266.62 202.92C266.13 206.66 267.62 208.41 266.37 210.41C265.12 212.41 227.96 219.63 227.96 219.63L224.47 203.92L242.18 199.68L239.25 195.52C236.502 191.603 234.649 187.13 233.821 182.418C232.994 177.705 233.212 172.869 234.46 168.25C236.64 160.22 239.57 152.57 242.43 155.04Z" fill="#329094"/>
<path d="M242.43 155.04C242.43 155.04 267.11 199.18 266.62 202.92C266.13 206.66 267.62 208.41 266.37 210.41C265.12 212.41 227.96 219.63 227.96 219.63L224.47 203.92L242.18 199.68L239.25 195.52C236.502 191.603 234.649 187.13 233.821 182.418C232.994 177.705 233.212 172.869 234.46 168.25C236.64 160.22 239.57 152.57 242.43 155.04Z" fill="url(#paint21_linear)"/>
<path d="M181.4 205.94L184.46 206.5L181.42 220.63L178.35 219.96L181.4 205.94Z" fill="white"/>
<path d="M224.73 204.75L221.82 205.5L225.06 220.05L227.96 219.63L224.73 204.75Z" fill="white"/>
<path d="M202.32 201.14C204.97 200.75 212.54 202.82 212.32 203.14C211.68 204.3 208.62 207.08 207.69 208.02C207.215 208.551 206.637 208.98 205.99 209.28C205.399 209.496 204.778 209.617 204.15 209.64C201.786 209.847 199.413 209.933 197.04 209.9C196.479 209.935 195.919 209.828 195.41 209.59C193.76 208.59 192.46 205.45 193.53 204.14C194.99 202.43 200.25 201.44 202.32 201.14Z" fill="#FFDAD2"/>
<path d="M342.87 241.82H59.48V248.3H342.87V241.82Z" fill="#329094"/>
<path d="M169.2 237.34H83.92L87.91 217.39H166.71L169.2 237.34Z" fill="#329094"/>
<path d="M169.04 237.34H88.74L92.5 217.39H166.69L169.04 237.34Z" fill="url(#paint22_linear)"/>
<path d="M272.66 226.53H260.27C258.458 226.53 256.99 227.998 256.99 229.81C256.99 231.621 258.458 233.09 260.27 233.09H272.66C274.471 233.09 275.94 231.621 275.94 229.81C275.94 227.998 274.471 226.53 272.66 226.53Z" fill="#329094"/>
<path d="M272.66 226.53H260.27C258.458 226.53 256.99 227.998 256.99 229.81C256.99 231.621 258.458 233.09 260.27 233.09H272.66C274.471 233.09 275.94 231.621 275.94 229.81C275.94 227.998 274.471 226.53 272.66 226.53Z" fill="url(#paint23_linear)"/>
<path d="M286.4 189.67C285.86 188.84 286.16 187.5 285.3 187.02C284.917 186.876 284.509 186.811 284.1 186.83C282.48 186.69 281.3 185.27 280.42 183.9C279.609 182.724 278.979 181.433 278.55 180.07C278.125 178.696 278.125 177.225 278.55 175.85C278.614 175.599 278.727 175.364 278.883 175.158C279.039 174.952 279.236 174.779 279.46 174.65C279.946 174.504 280.468 174.539 280.93 174.75C283.387 175.702 285.526 177.327 287.1 179.44C287.93 180.49 288.48 181.74 289.28 182.79C290.45 184.31 290.67 181.79 290.56 180.9C290.459 180.099 290.662 179.289 291.13 178.63C291.286 178.447 291.408 178.237 291.49 178.01C291.518 177.812 291.501 177.61 291.44 177.42C291.1 176.32 290.05 175.53 289.78 174.42C289.669 173.755 289.699 173.073 289.87 172.42C290.23 170.52 290.78 167.03 292.82 166.14C293.36 165.952 293.942 165.921 294.498 166.052C295.054 166.183 295.561 166.471 295.96 166.88C296.996 167.98 297.93 169.171 298.75 170.44C299.193 171.074 299.469 171.81 299.553 172.579C299.636 173.348 299.526 174.125 299.23 174.84C298.765 175.554 298.427 176.342 298.23 177.17C298.11 179.04 300.49 180.39 300.3 182.25C300.11 184.11 297.87 184.79 297.36 186.46C297 187.66 298.16 190.8 299.79 190.21C300.93 189.79 301.63 186.44 302.12 185.38C303.771 181.883 305.89 178.626 308.42 175.7C309.08 174.94 310.21 174.16 310.98 174.81C311.132 174.97 311.251 175.158 311.33 175.364C311.409 175.57 311.446 175.79 311.44 176.01C311.413 177.535 311.025 179.033 310.31 180.38L305.79 190.81C310.003 186.294 315.531 183.219 321.59 182.02C324.16 181.51 322.17 186.08 320.48 186.58C319.63 186.83 318.65 186.76 317.95 187.3C317.422 187.846 317.04 188.517 316.84 189.25C316.323 190.428 315.497 191.443 314.45 192.19C312.78 193.37 310.68 193.75 308.77 194.49C307.416 194.942 306.222 195.776 305.33 196.89C304.58 197.89 304.63 199.27 303.88 200.29C303.13 201.31 301.5 201.37 300.17 201.29C298.473 201.202 296.783 201.009 295.11 200.71C293.9 200.46 291.72 200.14 291.11 199.01C290.247 197.74 289.724 196.27 289.59 194.74C289.59 193.63 289.96 192.37 289.27 191.51C288.58 190.65 287.03 190.61 286.4 189.67Z" fill="#329094"/>
<path d="M286.4 189.67C285.86 188.84 286.16 187.5 285.3 187.02C284.917 186.876 284.509 186.811 284.1 186.83C282.48 186.69 281.3 185.27 280.42 183.9C279.609 182.724 278.979 181.433 278.55 180.07C278.125 178.696 278.125 177.225 278.55 175.85C278.614 175.599 278.727 175.364 278.883 175.158C279.039 174.952 279.236 174.779 279.46 174.65C279.946 174.504 280.468 174.539 280.93 174.75C283.387 175.702 285.526 177.327 287.1 179.44C287.93 180.49 288.48 181.74 289.28 182.79C290.45 184.31 290.67 181.79 290.56 180.9C290.459 180.099 290.662 179.289 291.13 178.63C291.286 178.447 291.408 178.237 291.49 178.01C291.518 177.812 291.501 177.61 291.44 177.42C291.1 176.32 290.05 175.53 289.78 174.42C289.669 173.755 289.699 173.073 289.87 172.42C290.23 170.52 290.78 167.03 292.82 166.14C293.36 165.952 293.942 165.921 294.498 166.052C295.054 166.183 295.561 166.471 295.96 166.88C296.996 167.98 297.93 169.171 298.75 170.44C299.193 171.074 299.469 171.81 299.553 172.579C299.636 173.348 299.526 174.125 299.23 174.84C298.765 175.554 298.427 176.342 298.23 177.17C298.11 179.04 300.49 180.39 300.3 182.25C300.11 184.11 297.87 184.79 297.36 186.46C297 187.66 298.16 190.8 299.79 190.21C300.93 189.79 301.63 186.44 302.12 185.38C303.771 181.883 305.89 178.626 308.42 175.7C309.08 174.94 310.21 174.16 310.98 174.81C311.132 174.97 311.251 175.158 311.33 175.364C311.409 175.57 311.446 175.79 311.44 176.01C311.413 177.535 311.025 179.033 310.31 180.38L305.79 190.81C310.003 186.294 315.531 183.219 321.59 182.02C324.16 181.51 322.17 186.08 320.48 186.58C319.63 186.83 318.65 186.76 317.95 187.3C317.422 187.846 317.04 188.517 316.84 189.25C316.323 190.428 315.497 191.443 314.45 192.19C312.78 193.37 310.68 193.75 308.77 194.49C307.416 194.942 306.222 195.776 305.33 196.89C304.58 197.89 304.63 199.27 303.88 200.29C303.13 201.31 301.5 201.37 300.17 201.29C298.473 201.202 296.783 201.009 295.11 200.71C293.9 200.46 291.72 200.14 291.11 199.01C290.247 197.74 289.724 196.27 289.59 194.74C289.59 193.63 289.96 192.37 289.27 191.51C288.58 190.65 287.03 190.61 286.4 189.67Z" fill="url(#paint24_linear)"/>
<path d="M298.23 217.55C303.433 217.55 307.65 213.332 307.65 208.13C307.65 202.927 303.433 198.71 298.23 198.71C293.027 198.71 288.81 202.927 288.81 208.13C288.81 213.332 293.027 217.55 298.23 217.55Z" fill="#329094"/>
<path d="M307.64 198.22C307.56 200.661 306.535 202.976 304.78 204.675C303.024 206.374 300.678 207.324 298.235 207.324C295.792 207.324 293.446 206.374 291.69 204.675C289.935 202.976 288.91 200.661 288.83 198.22H307.64Z" fill="#329094"/>
<path d="M307.67 208.14C307.671 209.609 307.329 211.057 306.671 212.369C306.012 213.682 305.057 214.823 303.879 215.7C302.702 216.578 301.336 217.168 299.89 217.423C298.444 217.679 296.958 217.593 295.551 217.172C294.145 216.752 292.856 216.008 291.787 215C290.719 213.993 289.901 212.75 289.399 211.37C288.896 209.99 288.723 208.512 288.894 207.054C289.064 205.595 289.573 204.197 290.38 202.97C289.454 201.553 288.925 199.912 288.85 198.22H307.66C307.581 199.913 307.049 201.553 306.12 202.97C307.134 204.503 307.673 206.302 307.67 208.14V208.14Z" fill="url(#paint25_linear)"/>
<path d="M109.132 232.326C107.78 232.326 106.748 231.95 106.036 231.198C105.332 230.446 104.98 229.378 104.98 227.994C104.98 227.306 105.088 226.694 105.304 226.158C105.52 225.614 105.816 225.158 106.192 224.79C106.568 224.414 107.016 224.13 107.536 223.938C108.056 223.746 108.62 223.65 109.228 223.65C109.58 223.65 109.9 223.678 110.188 223.734C110.476 223.782 110.728 223.842 110.944 223.914C111.16 223.978 111.34 224.046 111.484 224.118C111.628 224.19 111.732 224.246 111.796 224.286L111.256 225.798C111 225.662 110.7 225.546 110.356 225.45C110.02 225.354 109.636 225.306 109.204 225.306C108.916 225.306 108.632 225.354 108.352 225.45C108.08 225.546 107.836 225.702 107.62 225.918C107.412 226.126 107.244 226.398 107.116 226.734C106.988 227.07 106.924 227.478 106.924 227.958C106.924 228.342 106.964 228.702 107.044 229.038C107.132 229.366 107.268 229.65 107.452 229.89C107.644 230.13 107.892 230.322 108.196 230.466C108.5 230.602 108.868 230.67 109.3 230.67C109.572 230.67 109.816 230.654 110.032 230.622C110.248 230.59 110.44 230.554 110.608 230.514C110.776 230.466 110.924 230.414 111.052 230.358C111.18 230.302 111.296 230.25 111.4 230.202L111.916 231.702C111.652 231.862 111.28 232.006 110.8 232.134C110.32 232.262 109.764 232.326 109.132 232.326ZM120.537 223.842H122.409V232.158H120.537V228.63H117.393V232.158H115.521V223.842H117.393V227.022H120.537V223.842ZM126.734 223.842H128.606V232.158H126.734V223.842ZM132.931 232.158V223.842H138.547V225.414H134.803V227.046H138.127V228.582H134.803V230.586H138.823V232.158H132.931ZM142.608 232.158V223.842H148.176V225.414H144.48V227.154H147.768V228.726H144.48V232.158H142.608Z" fill="black"/>
</g>
<defs>
<linearGradient id="paint0_linear" x1="7575.53" y1="-1184.03" x2="8169.44" y2="12400.1" gradientUnits="userSpaceOnUse">
<stop offset="0.02" stop-color="white" stop-opacity="0"/>
<stop offset="0.58" stop-color="white" stop-opacity="0.39"/>
<stop offset="1" stop-color="white"/>
</linearGradient>
<linearGradient id="paint1_linear" x1="4466.88" y1="-1077.1" x2="5073.49" y2="12780" gradientUnits="userSpaceOnUse">
<stop offset="0.02" stop-color="white" stop-opacity="0"/>
<stop offset="0.58" stop-color="white" stop-opacity="0.39"/>
<stop offset="1" stop-color="white"/>
</linearGradient>
<linearGradient id="paint2_linear" x1="7399.94" y1="-1589.06" x2="8006.71" y2="12290.3" gradientUnits="userSpaceOnUse">
<stop offset="0.02" stop-color="white" stop-opacity="0"/>
<stop offset="0.58" stop-color="white" stop-opacity="0.39"/>
<stop offset="1" stop-color="white"/>
</linearGradient>
<linearGradient id="paint3_linear" x1="4295.82" y1="-1396.05" x2="4903.13" y2="12483.8" gradientUnits="userSpaceOnUse">
<stop offset="0.02" stop-color="white" stop-opacity="0"/>
<stop offset="0.58" stop-color="white" stop-opacity="0.39"/>
<stop offset="1" stop-color="white"/>
</linearGradient>
<linearGradient id="paint4_linear" x1="7268.43" y1="-1523.08" x2="7875.2" y2="12356.2" gradientUnits="userSpaceOnUse">
<stop offset="0.02" stop-color="white" stop-opacity="0"/>
<stop offset="0.58" stop-color="white" stop-opacity="0.39"/>
<stop offset="1" stop-color="white"/>
</linearGradient>
<linearGradient id="paint5_linear" x1="12689.2" y1="-1160.84" x2="13296.2" y2="12721.6" gradientUnits="userSpaceOnUse">
<stop offset="0.02" stop-color="white" stop-opacity="0"/>
<stop offset="0.58" stop-color="white" stop-opacity="0.39"/>
<stop offset="1" stop-color="white"/>
</linearGradient>
<linearGradient id="paint6_linear" x1="13906.2" y1="-561.333" x2="14350.5" y2="9911.95" gradientUnits="userSpaceOnUse">
<stop offset="0.02" stop-color="white" stop-opacity="0"/>
<stop offset="0.58" stop-color="white" stop-opacity="0.39"/>
<stop offset="1" stop-color="white"/>
</linearGradient>
<linearGradient id="paint7_linear" x1="12524.8" y1="-1461.5" x2="13131.5" y2="12417.8" gradientUnits="userSpaceOnUse">
<stop offset="0.02" stop-color="white" stop-opacity="0"/>
<stop offset="0.58" stop-color="white" stop-opacity="0.39"/>
<stop offset="1" stop-color="white"/>
</linearGradient>
<linearGradient id="paint8_linear" x1="15529.2" y1="-1221.14" x2="16136" y2="12656.6" gradientUnits="userSpaceOnUse">
<stop offset="0.02" stop-color="white" stop-opacity="0"/>
<stop offset="0.58" stop-color="white" stop-opacity="0.39"/>
<stop offset="1" stop-color="white"/>
</linearGradient>
<linearGradient id="paint9_linear" x1="12393.3" y1="-1396.05" x2="13000" y2="12483.8" gradientUnits="userSpaceOnUse">
<stop offset="0.02" stop-color="white" stop-opacity="0"/>
<stop offset="0.58" stop-color="white" stop-opacity="0.39"/>
<stop offset="1" stop-color="white"/>
</linearGradient>
<linearGradient id="paint10_linear" x1="15365.4" y1="-1523.08" x2="15972.1" y2="12356.2" gradientUnits="userSpaceOnUse">
<stop offset="0.02" stop-color="white" stop-opacity="0"/>
<stop offset="0.58" stop-color="white" stop-opacity="0.39"/>
<stop offset="1" stop-color="white"/>
</linearGradient>
<linearGradient id="paint11_linear" x1="200.46" y1="216.38" x2="205.17" y2="431.72" gradientUnits="userSpaceOnUse">
<stop offset="0.01"/>
<stop offset="0.83" stop-opacity="0.07"/>
<stop offset="1" stop-opacity="0"/>
</linearGradient>
<linearGradient id="paint12_linear" x1="54261.9" y1="4386.18" x2="54263.2" y2="5281.17" gradientUnits="userSpaceOnUse">
<stop offset="0.01"/>
<stop offset="0.83" stop-opacity="0.07"/>
<stop offset="1" stop-opacity="0"/>
</linearGradient>
<linearGradient id="paint13_linear" x1="15196" y1="13891.9" x2="14603" y2="9568" gradientUnits="userSpaceOnUse">
<stop offset="0.01"/>
<stop offset="0.83" stop-opacity="0.07"/>
<stop offset="1" stop-opacity="0"/>
</linearGradient>
<linearGradient id="paint14_linear" x1="204.24" y1="224.05" x2="200.5" y2="171.69" gradientUnits="userSpaceOnUse">
<stop offset="0.01"/>
<stop offset="1" stop-opacity="0"/>
</linearGradient>
<linearGradient id="paint15_linear" x1="56839.3" y1="6938.68" x2="56849.5" y2="13226.1" gradientUnits="userSpaceOnUse">
<stop offset="0.01"/>
<stop offset="0.83" stop-opacity="0.07"/>
<stop offset="1" stop-opacity="0"/>
</linearGradient>
<linearGradient id="paint16_linear" x1="2923.93" y1="3924.78" x2="2962.81" y2="3934.91" gradientUnits="userSpaceOnUse">
<stop offset="0.01"/>
<stop offset="0.83" stop-opacity="0.07"/>
<stop offset="1" stop-opacity="0"/>
</linearGradient>
<linearGradient id="paint17_linear" x1="203.35" y1="126.27" x2="199.36" y2="154.94" gradientUnits="userSpaceOnUse">
<stop offset="0.01"/>
<stop offset="0.12" stop-opacity="0.75"/>
<stop offset="1" stop-opacity="0"/>
</linearGradient>
<linearGradient id="paint18_linear" x1="8129.76" y1="2835.62" x2="8066.02" y2="4807.56" gradientUnits="userSpaceOnUse">
<stop offset="0.01"/>
<stop offset="0.83" stop-opacity="0.07"/>
<stop offset="1" stop-opacity="0"/>
</linearGradient>
<linearGradient id="paint19_linear" x1="2094.84" y1="531.605" x2="2187.41" y2="531.605" gradientUnits="userSpaceOnUse">
<stop offset="0.01"/>
<stop offset="0.83" stop-opacity="0.07"/>
<stop offset="1" stop-opacity="0"/>
</linearGradient>
<linearGradient id="paint20_linear" x1="6726.44" y1="15093.4" x2="7473.1" y2="13265.6" gradientUnits="userSpaceOnUse">
<stop offset="0.01"/>
<stop offset="1" stop-opacity="0"/>
</linearGradient>
<linearGradient id="paint21_linear" x1="8834.34" y1="12660.1" x2="11307" y2="12752" gradientUnits="userSpaceOnUse">
<stop offset="0.01"/>
<stop offset="0.83" stop-opacity="0.07"/>
<stop offset="1" stop-opacity="0"/>
</linearGradient>
<linearGradient id="paint22_linear" x1="7214.56" y1="4753.22" x2="13662.7" y2="4753.22" gradientUnits="userSpaceOnUse">
<stop offset="0.02" stop-color="white" stop-opacity="0"/>
<stop offset="0.58" stop-color="white" stop-opacity="0.39"/>
<stop offset="1" stop-color="white"/>
</linearGradient>
<linearGradient id="paint23_linear" x1="5300.54" y1="1770.49" x2="5302.81" y2="1653.99" gradientUnits="userSpaceOnUse">
<stop offset="0.01"/>
<stop offset="0.83" stop-opacity="0.07"/>
<stop offset="1" stop-opacity="0"/>
</linearGradient>
<linearGradient id="paint24_linear" x1="13647.7" y1="7719.44" x2="13689.8" y2="6742.55" gradientUnits="userSpaceOnUse">
<stop offset="0.01"/>
<stop offset="0.83" stop-opacity="0.07"/>
<stop offset="1" stop-opacity="0"/>
</linearGradient>
<linearGradient id="paint25_linear" x1="5744.53" y1="4354.89" x2="6099.47" y2="4354.89" gradientUnits="userSpaceOnUse">
<stop offset="0.02" stop-color="white" stop-opacity="0"/>
<stop offset="0.58" stop-color="white" stop-opacity="0.39"/>
<stop offset="1" stop-color="white"/>
</linearGradient>
<clipPath id="clip0">
<rect width="413.56" height="342.93" fill="white"/>
</clipPath>
</defs>
</svg>
