<svg width="11" height="11" viewBox="0 0 11 11" fill="none" xmlns="http://www.w3.org/2000/svg">
<ellipse cx="5.42104" cy="5.2" rx="3.80364" ry="3.88604" fill="white"/>
<path d="M5.42105 10.2C4.09497 10.2 2.8232 9.67317 1.88552 8.73548C0.947835 7.7978 0.421051 6.52603 0.421051 5.19995C0.421051 3.87387 0.947835 2.6021 1.88552 1.66442C2.8232 0.726735 4.09497 0.199951 5.42105 0.199951L5.42105 2.69995C4.75801 2.69995 4.12213 2.96334 3.65328 3.43218C3.18444 3.90103 2.92105 4.53691 2.92105 5.19995C2.92105 5.86299 3.18444 6.49888 3.65328 6.96772C4.12212 7.43656 4.75801 7.69995 5.42105 7.69995L5.42105 10.2Z" fill="#329094"/>
<path d="M5.42105 0.199951C6.74713 0.199951 8.0189 0.726735 8.95658 1.66442C9.89427 2.6021 10.4211 3.87387 10.4211 5.19995C10.4211 6.52603 9.89427 7.7978 8.95659 8.73548C8.0189 9.67317 6.74713 10.2 5.42105 10.2L5.42105 7.69995C6.08409 7.69995 6.71998 7.43656 7.18882 6.96772C7.65766 6.49888 7.92105 5.86299 7.92105 5.19995C7.92105 4.53691 7.65766 3.90103 7.18882 3.43218C6.71998 2.96334 6.08409 2.69995 5.42105 2.69995L5.42105 0.199951Z" fill="#329094"/>
</svg>
