<svg width="25" height="20" viewBox="0 0 25 20" fill="none" xmlns="http://www.w3.org/2000/svg">
<path d="M7.97005 20C17.2583 20 22.3386 12.3047 22.3386 5.63144C22.3386 5.41287 22.3386 5.19528 22.3238 4.97868C23.3122 4.26381 24.1653 3.37867 24.8433 2.3647C23.9216 2.77309 22.9439 3.04091 21.9428 3.15923C22.997 2.52811 23.786 1.53548 24.163 0.366055C23.1717 0.954281 22.0872 1.36883 20.9563 1.59182C20.1949 0.78221 19.1879 0.246105 18.0911 0.0664686C16.9943 -0.113168 15.8689 0.0736786 14.889 0.598095C13.9091 1.12251 13.1294 1.95526 12.6705 2.96748C12.2116 3.97969 12.099 5.11495 12.3503 6.19756C10.3426 6.09691 8.37844 5.57516 6.58541 4.66618C4.79239 3.7572 3.21056 2.48131 1.94262 0.921342C1.29684 2.03306 1.09905 3.34911 1.38952 4.60154C1.67999 5.85397 2.43688 6.9486 3.50609 7.66257C2.70244 7.63875 1.91631 7.42196 1.21405 7.03049C1.21405 7.05117 1.21405 7.07283 1.21405 7.09449C1.21437 8.26041 1.61797 9.39033 2.35641 10.2926C3.09484 11.1949 4.12264 11.8139 5.26548 12.0448C4.52202 12.2476 3.74197 12.2772 2.98526 12.1315C3.30795 13.1349 3.9362 14.0124 4.78214 14.6412C5.62807 15.27 6.64938 15.6186 7.70323 15.6384C5.91503 17.0438 3.70601 17.8067 1.43163 17.8044C1.02984 17.8037 0.628441 17.7793 0.229496 17.7316C2.5389 19.2136 5.22601 19.9997 7.97005 19.9961" fill="black"/>
</svg>
